<svg width="42" height="55" viewBox="0 0 42 39" fill="none" xmlns="http://www.w3.org/2000/svg">
<path d="M12.93 20C12.38 20 11.9092 19.8042 11.5175 19.4125C11.1258 19.0208 10.93 18.55 10.93 18V6C10.93 5.45 11.1258 4.97917 11.5175 4.5875C11.9092 4.19583 12.38 4 12.93 4H16.93V2C16.93 1.45 17.1258 0.979167 17.5175 0.5875C17.9092 0.195833 18.38 0 18.93 0H22.93C23.48 0 23.9508 0.195833 24.3425 0.5875C24.7342 0.979167 24.93 1.45 24.93 2V4H28.93C29.48 4 29.9508 4.19583 30.3425 4.5875C30.7342 4.97917 30.93 5.45 30.93 6V18C30.93 18.55 30.7342 19.0208 30.3425 19.4125C29.9508 19.8042 29.48 20 28.93 20H12.93ZM12.93 18H28.93V6H12.93V18ZM18.93 4H22.93V2H18.93V4ZM12.93 18V6V18ZM19.93 13V16H21.93V13H24.93V11H21.93V8H19.93V11H16.93V13H19.93Z" fill="#94A3B8"/>
<path d="M0.2 35L2.47001 27.8H4.23664L6.50665 35H5.265L3.20666 28.54H3.47333L1.44165 35H0.2ZM1.46666 33.4383V32.3133H5.24666V33.4383H1.46666ZM8.405 35V27.8H10.6983C10.76 27.8 10.8803 27.8017 11.0592 27.805C11.2381 27.8083 11.41 27.8206 11.575 27.8417C12.1467 27.9128 12.6296 28.1147 13.0237 28.4475C13.4179 28.7803 13.7167 29.2029 13.92 29.7154C14.1233 30.2279 14.225 30.7894 14.225 31.4C14.225 32.0111 14.1233 32.5729 13.92 33.0854C13.7167 33.5979 13.4179 34.0204 13.0237 34.3529C12.6296 34.6854 12.1467 34.8872 11.575 34.9583C11.4106 34.9789 11.2385 34.991 11.0587 34.9946C10.879 34.9982 10.7589 35 10.6983 35H8.405ZM9.62998 33.8634H10.6983C10.8 33.8634 10.9282 33.8604 11.0829 33.8546C11.2376 33.8488 11.3756 33.8345 11.4967 33.8117C11.8367 33.7456 12.1133 33.5929 12.3267 33.3538C12.54 33.1146 12.6972 32.8235 12.7983 32.4804C12.8995 32.1374 12.95 31.7772 12.95 31.4C12.95 31.0089 12.8981 30.6418 12.7942 30.2987C12.6903 29.9557 12.531 29.6673 12.3163 29.4337C12.1015 29.2001 11.8283 29.0516 11.4967 28.9883C11.3756 28.9628 11.2372 28.9478 11.0817 28.9433C10.9261 28.9389 10.7983 28.9366 10.6983 28.9366H9.62998V33.8634ZM17.73 35L15.46 27.8H16.7016L18.6 33.8317L20.525 27.8H21.7667L19.4966 35H17.73ZM23.615 35V27.8H24.8183V35H23.615ZM30.3667 35.15C29.6472 35.15 29.0303 34.9928 28.5158 34.6783C28.0014 34.3639 27.6068 33.925 27.3321 33.3617C27.0574 32.7983 26.92 32.1444 26.92 31.4C26.92 30.6556 27.0574 30.0017 27.3321 29.4383C27.6068 28.875 28.0014 28.4361 28.5158 28.1217C29.0303 27.8072 29.6472 27.65 30.3667 27.65C31.1956 27.65 31.8868 27.8574 32.4404 28.2721C32.994 28.6868 33.3817 29.2467 33.6033 29.9517L32.3883 30.285C32.2506 29.815 32.0132 29.4478 31.6763 29.1833C31.3393 28.9189 30.9028 28.7866 30.3667 28.7866C29.8833 28.7866 29.4805 28.895 29.1583 29.1117C28.8361 29.3283 28.5939 29.6326 28.4316 30.0246C28.2694 30.4165 28.1878 30.875 28.1866 31.4C28.1855 31.925 28.2661 32.3833 28.4283 32.775C28.5905 33.1667 28.8333 33.471 29.1567 33.6879C29.48 33.9049 29.8833 34.0134 30.3667 34.0134C30.9028 34.0134 31.3393 33.8803 31.6763 33.6142C32.0132 33.3481 32.2506 32.9817 32.3883 32.515L33.6033 32.8483C33.3817 33.5533 32.994 34.1132 32.4404 34.5279C31.8868 34.9426 31.1956 35.15 30.3667 35.15ZM35.705 35V27.8H40.355V28.9283H36.9083V30.7067H39.755V31.835H36.9083V33.8717H40.355V35H35.705Z" fill="#94A3B8"/>
</svg>
