<svg width="40" height="40" viewBox="0 0 40 40" fill="none" xmlns="http://www.w3.org/2000/svg">
<path d="M10.6666 28.1667V25.8334H13V17.6667C13 16.0528 13.4861 14.6188 14.4583 13.3646C15.4305 12.1105 16.6944 11.2889 18.25 10.9V10.0834C18.25 9.59726 18.4201 9.18407 18.7604 8.84379C19.1007 8.50351 19.5138 8.33337 20 8.33337C20.4861 8.33337 20.8993 8.50351 21.2395 8.84379C21.5798 9.18407 21.75 9.59726 21.75 10.0834V10.9C23.3055 11.2889 24.5694 12.1105 25.5416 13.3646C26.5138 14.6188 27 16.0528 27 17.6667V25.8334H29.3333V28.1667H10.6666ZM20 31.6667C19.3583 31.6667 18.809 31.4382 18.352 30.9813C17.8951 30.5243 17.6666 29.975 17.6666 29.3334H22.3333C22.3333 29.975 22.1048 30.5243 21.6479 30.9813C21.1909 31.4382 20.6416 31.6667 20 31.6667ZM15.3333 25.8334H24.6666V17.6667C24.6666 16.3834 24.2097 15.2848 23.2958 14.3709C22.3819 13.457 21.2833 13 20 13C18.7166 13 17.618 13.457 16.7041 14.3709C15.7902 15.2848 15.3333 16.3834 15.3333 17.6667V25.8334Z" fill="#334155"/>
</svg>
