<svg width="72" height="71" viewBox="0 0 72 71" fill="none" xmlns="http://www.w3.org/2000/svg">
<rect x="12" y="2" width="48" height="47.3333" rx="23.6667" fill="#13EC49"/>
<g filter="url(#filter0_dd_3336_68)">
<rect x="12" y="2" width="48" height="47" rx="23.5" fill="white" fill-opacity="0.01" shape-rendering="crispEdges"/>
</g>
<path d="M38.6667 37.3333V34.6C40.6667 34.0222 42.2778 32.9111 43.5 31.2667C44.7222 29.6222 45.3333 27.7556 45.3333 25.6667C45.3333 23.5778 44.7222 21.7111 43.5 20.0667C42.2778 18.4222 40.6667 17.3111 38.6667 16.7333V14C41.4222 14.6222 43.6667 16.0167 45.4 18.1833C47.1333 20.35 48 22.8444 48 25.6667C48 28.4889 47.1333 30.9833 45.4 33.15C43.6667 35.3167 41.4222 36.7111 38.6667 37.3333V37.3333M24 29.7V21.7H29.3333L36 15.0333V36.3667L29.3333 29.7H24V29.7M38.6667 31.0333V20.3C39.7111 20.7889 40.5278 21.5222 41.1167 22.5C41.7056 23.4778 42 24.5444 42 25.7C42 26.8333 41.7056 27.8833 41.1167 28.85C40.5278 29.8167 39.7111 30.5444 38.6667 31.0333V31.0333M33.3333 21.5L30.4667 24.3667H26.6667V27.0333H30.4667L33.3333 29.9V21.5V21.5M30 25.7V25.7V25.7V25.7V25.7V25.7V25.7V25.7" fill="#0D1B11"/>
<defs>
<filter id="filter0_dd_3336_68" x="0" y="0" width="72" height="71" filterUnits="userSpaceOnUse" color-interpolation-filters="sRGB">
<feFlood flood-opacity="0" result="BackgroundImageFix"/>
<feColorMatrix in="SourceAlpha" type="matrix" values="0 0 0 0 0 0 0 0 0 0 0 0 0 0 0 0 0 0 127 0" result="hardAlpha"/>
<feMorphology radius="4" operator="erode" in="SourceAlpha" result="effect1_dropShadow_3336_68"/>
<feOffset dy="4"/>
<feGaussianBlur stdDeviation="3"/>
<feComposite in2="hardAlpha" operator="out"/>
<feColorMatrix type="matrix" values="0 0 0 0 0.0745098 0 0 0 0 0.92549 0 0 0 0 0.286275 0 0 0 0.2 0"/>
<feBlend mode="normal" in2="BackgroundImageFix" result="effect1_dropShadow_3336_68"/>
<feColorMatrix in="SourceAlpha" type="matrix" values="0 0 0 0 0 0 0 0 0 0 0 0 0 0 0 0 0 0 127 0" result="hardAlpha"/>
<feMorphology radius="3" operator="erode" in="SourceAlpha" result="effect2_dropShadow_3336_68"/>
<feOffset dy="10"/>
<feGaussianBlur stdDeviation="7.5"/>
<feComposite in2="hardAlpha" operator="out"/>
<feColorMatrix type="matrix" values="0 0 0 0 0.0745098 0 0 0 0 0.92549 0 0 0 0 0.286275 0 0 0 0.2 0"/>
<feBlend mode="normal" in2="effect1_dropShadow_3336_68" result="effect2_dropShadow_3336_68"/>
<feBlend mode="normal" in="SourceGraphic" in2="effect2_dropShadow_3336_68" result="shape"/>
</filter>
</defs>
</svg>
