<svg width="48" height="48" viewBox="0 0 48 48" fill="none" xmlns="http://www.w3.org/2000/svg">
<path d="M24 31.3333C25.6666 31.3333 27.0833 30.75 28.25 29.5833C29.4166 28.4167 30 27 30 25.3333C30 23.6667 29.4166 22.25 28.25 21.0833C27.0833 19.9167 25.6666 19.3333 24 19.3333C22.3333 19.3333 20.9166 19.9167 19.75 21.0833C18.5833 22.25 18 23.6667 18 25.3333C18 27 18.5833 28.4167 19.75 29.5833C20.9166 30.75 22.3333 31.3333 24 31.3333V31.3333M24 28.6667C23.0666 28.6667 22.2777 28.3444 21.6333 27.7C20.9888 27.0556 20.6666 26.2667 20.6666 25.3333C20.6666 24.4 20.9888 23.6111 21.6333 22.9667C22.2777 22.3222 23.0666 22 24 22C24.9333 22 25.7222 22.3222 26.3666 22.9667C27.0111 23.6111 27.3333 24.4 27.3333 25.3333C27.3333 26.2667 27.0111 27.0556 26.3666 27.7C25.7222 28.3444 24.9333 28.6667 24 28.6667V28.6667M13.3333 36C12.6 36 11.9722 35.7389 11.45 35.2167C10.9277 34.6944 10.6666 34.0667 10.6666 33.3333V17.3333C10.6666 16.6 10.9277 15.9722 11.45 15.45C11.9722 14.9278 12.6 14.6667 13.3333 14.6667H17.5333L20 12H28L30.4666 14.6667H34.6666C35.4 14.6667 36.0277 14.9278 36.55 15.45C37.0722 15.9722 37.3333 16.6 37.3333 17.3333V33.3333C37.3333 34.0667 37.0722 34.6944 36.55 35.2167C36.0277 35.7389 35.4 36 34.6666 36H13.3333V36M13.3333 33.3333H34.6666V33.3333V33.3333V17.3333V17.3333V17.3333H29.2666L26.8333 14.6667H21.1666L18.7333 17.3333H13.3333V17.3333V17.3333V33.3333V33.3333V33.3333V33.3333M24 25.3333V25.3333V25.3333V25.3333V25.3333V25.3333V25.3333V25.3333V25.3333V25.3333V25.3333V25.3333V25.3333V25.3333V25.3333V25.3333V25.3333V25.3333" fill="#0F172A"/>
</svg>
