<svg width="64" height="64" viewBox="0 0 64 64" fill="none" xmlns="http://www.w3.org/2000/svg">
<rect x="1" y="1" width="62" height="62" rx="31" stroke="black" stroke-opacity="0.05" stroke-width="2"/>
<path d="M31.9926 39.125C33.6225 39.125 35.0104 38.5545 36.1562 37.4136C37.3021 36.2727 37.875 34.8873 37.875 33.2574C37.875 31.6275 37.3045 30.2396 36.1636 29.0938C35.0227 27.9479 33.6373 27.375 32.0074 27.375C30.3775 27.375 28.9896 27.9455 27.8438 29.0864C26.6979 30.2273 26.125 31.6127 26.125 33.2426C26.125 34.8725 26.6955 36.2604 27.8364 37.4062C28.9773 38.5521 30.3627 39.125 31.9926 39.125V39.125M32 35.8125C31.2708 35.8125 30.6615 35.5677 30.1719 35.0781C29.6823 34.5885 29.4375 33.9792 29.4375 33.25C29.4375 32.5208 29.6823 31.9115 30.1719 31.4219C30.6615 30.9323 31.2708 30.6875 32 30.6875C32.7292 30.6875 33.3385 30.9323 33.8281 31.4219C34.3177 31.9115 34.5625 32.5208 34.5625 33.25C34.5625 33.9792 34.3177 34.5885 33.8281 35.0781C33.3385 35.5677 32.7292 35.8125 32 35.8125V35.8125M22.375 44.3125C21.2708 44.3125 20.3385 43.9323 19.5781 43.1719C18.8177 42.4115 18.4375 41.4792 18.4375 40.375V26.125C18.4375 25.0208 18.8177 24.0885 19.5781 23.3281C20.3385 22.5677 21.2708 22.1875 22.375 22.1875H25.375L28.125 19.6875H35.875L38.625 22.1875H41.625C42.7292 22.1875 43.6615 22.5677 44.4219 23.3281C45.1823 24.0885 45.5625 25.0208 45.5625 26.125V40.375C45.5625 41.4792 45.1823 42.4115 44.4219 43.1719C43.6615 43.9323 42.7292 44.3125 41.625 44.3125H22.375V44.3125M22.375 40.375H41.625V40.375V40.375V26.125V26.125V26.125H37.0312L34.4062 23.625H29.6875L26.875 26.125H22.375V26.125V26.125V40.375V40.375V40.375V40.375M32 33.25V33.25V33.25V33.25V33.25V33.25V33.25V33.25V33.25V33.25V33.25V33.25V33.25V33.25V33.25V33.25V33.25V33.25" fill="black"/>
</svg>
