<svg width="57" height="60" viewBox="0 0 57 33" fill="none" xmlns="http://www.w3.org/2000/svg">
<path d="M14.3199 14V12.1625C14.3199 11.3264 14.7477 10.6458 15.6033 10.1208C16.4588 9.59583 17.5866 9.33333 18.9866 9.33333C19.2394 9.33333 19.4824 9.33819 19.7158 9.34792C19.9491 9.35764 20.1727 9.38194 20.3866 9.42083C20.1144 9.82917 19.9102 10.2569 19.7741 10.7042C19.638 11.1514 19.5699 11.6181 19.5699 12.1042V14H14.3199V14M21.3199 14V12.1042C21.3199 11.4819 21.4901 10.9132 21.8304 10.3979C22.1706 9.88264 22.6519 9.43056 23.2741 9.04167C23.8963 8.65278 24.6401 8.36111 25.5054 8.16667C26.3706 7.97222 27.3088 7.875 28.3199 7.875C29.3505 7.875 30.2984 7.97222 31.1637 8.16667C32.029 8.36111 32.7727 8.65278 33.3949 9.04167C34.0172 9.43056 34.4936 9.88264 34.8241 10.3979C35.1547 10.9132 35.3199 11.4819 35.3199 12.1042V14H21.3199V14M37.0699 14V12.1042C37.0699 11.5986 37.0068 11.1222 36.8804 10.675C36.754 10.2278 36.5644 9.80972 36.3116 9.42083C36.5255 9.38194 36.7443 9.35764 36.9679 9.34792C37.1915 9.33819 37.4199 9.33333 37.6533 9.33333C39.0533 9.33333 40.1811 9.59097 41.0366 10.1062C41.8922 10.6215 42.3199 11.3069 42.3199 12.1625V14H37.0699V14M23.7991 11.6667H32.8699V11.6667C32.6755 11.2778 32.1359 10.9375 31.2512 10.6458C30.3665 10.3542 29.3894 10.2083 28.3199 10.2083C27.2505 10.2083 26.2734 10.3542 25.3887 10.6458C24.504 10.9375 23.9741 11.2778 23.7991 11.6667V11.6667V11.6667M18.9866 8.16667C18.3449 8.16667 17.7956 7.93819 17.3387 7.48125C16.8818 7.02431 16.6533 6.475 16.6533 5.83333C16.6533 5.17222 16.8818 4.61806 17.3387 4.17083C17.7956 3.72361 18.3449 3.5 18.9866 3.5C19.6477 3.5 20.2019 3.72361 20.6491 4.17083C21.0963 4.61806 21.3199 5.17222 21.3199 5.83333C21.3199 6.475 21.0963 7.02431 20.6491 7.48125C20.2019 7.93819 19.6477 8.16667 18.9866 8.16667V8.16667M37.6533 8.16667C37.0116 8.16667 36.4623 7.93819 36.0054 7.48125C35.5484 7.02431 35.3199 6.475 35.3199 5.83333C35.3199 5.17222 35.5484 4.61806 36.0054 4.17083C36.4623 3.72361 37.0116 3.5 37.6533 3.5C38.3144 3.5 38.8686 3.72361 39.3158 4.17083C39.763 4.61806 39.9866 5.17222 39.9866 5.83333C39.9866 6.475 39.763 7.02431 39.3158 7.48125C38.8686 7.93819 38.3144 8.16667 37.6533 8.16667V8.16667M28.3199 7C27.3477 7 26.5213 6.65972 25.8408 5.97917C25.1602 5.29861 24.8199 4.47222 24.8199 3.5C24.8199 2.50833 25.1602 1.67708 25.8408 1.00625C26.5213 0.335417 27.3477 0 28.3199 0C29.3116 0 30.1429 0.335417 30.8137 1.00625C31.4845 1.67708 31.8199 2.50833 31.8199 3.5C31.8199 4.47222 31.4845 5.29861 30.8137 5.97917C30.1429 6.65972 29.3116 7 28.3199 7V7M28.3199 4.66667C28.6505 4.66667 28.9276 4.55486 29.1512 4.33125C29.3748 4.10764 29.4866 3.83056 29.4866 3.5C29.4866 3.16944 29.3748 2.89236 29.1512 2.66875C28.9276 2.44514 28.6505 2.33333 28.3199 2.33333C27.9894 2.33333 27.7123 2.44514 27.4887 2.66875C27.2651 2.89236 27.1533 3.16944 27.1533 3.5C27.1533 3.83056 27.2651 4.10764 27.4887 4.33125C27.7123 4.55486 27.9894 4.66667 28.3199 4.66667V4.66667M28.3491 11.6667V11.6667V11.6667V11.6667V11.6667V11.6667V11.6667V11.6667V11.6667M28.3199 3.5V3.5V3.5V3.5V3.5V3.5V3.5V3.5V3.5V3.5" fill="#9CA3AF"/>
<path d="M3.74666 29.15C3.02722 29.15 2.41027 28.9928 1.89583 28.6783C1.38139 28.3639 0.986803 27.925 0.712082 27.3617C0.437361 26.7983 0.3 26.1444 0.3 25.4C0.3 24.6556 0.437361 24.0017 0.712082 23.4383C0.986803 22.875 1.38139 22.4361 1.89583 22.1217C2.41027 21.8072 3.02722 21.65 3.74666 21.65C4.57555 21.65 5.2668 21.8574 5.82041 22.2721C6.37402 22.6868 6.76166 23.2467 6.98332 23.9517L5.76834 24.285C5.63056 23.815 5.3932 23.4478 5.05625 23.1833C4.71931 22.9189 4.28278 22.7866 3.74666 22.7866C3.26332 22.7866 2.86054 22.895 2.53832 23.1117C2.2161 23.3283 1.97387 23.6326 1.81165 24.0246C1.64943 24.4165 1.56776 24.875 1.56665 25.4C1.56554 25.925 1.64609 26.3833 1.80831 26.775C1.97054 27.1667 2.21332 27.471 2.53665 27.6879C2.85999 27.9049 3.26332 28.0134 3.74666 28.0134C4.28278 28.0134 4.71931 27.8803 5.05625 27.6142C5.3932 27.3481 5.63056 26.9817 5.76834 26.515L6.98332 26.8483C6.76166 27.5533 6.37402 28.1132 5.82041 28.5279C5.2668 28.9426 4.57555 29.15 3.74666 29.15ZM10.4717 29.15C9.93 29.15 9.45777 29.0283 9.055 28.785C8.65222 28.5417 8.33986 28.2057 8.11792 27.7771C7.89597 27.3485 7.785 26.8556 7.785 26.2983C7.785 25.7344 7.89833 25.2385 8.125 24.8104C8.35166 24.3824 8.66653 24.0486 9.06958 23.8092C9.47263 23.5697 9.94 23.45 10.4717 23.45C11.0139 23.45 11.4871 23.5715 11.8912 23.8146C12.2954 24.0576 12.609 24.3932 12.8321 24.8213C13.0551 25.2493 13.1667 25.7417 13.1667 26.2983C13.1667 26.86 13.0543 27.355 12.8296 27.7833C12.6049 28.2117 12.2903 28.5465 11.8858 28.7879C11.4814 29.0293 11.01 29.15 10.4717 29.15ZM10.4717 28.0217C10.9489 28.0217 11.3049 27.8611 11.5396 27.54C11.7743 27.2189 11.8917 26.805 11.8917 26.2983C11.8917 25.7756 11.7728 25.3582 11.535 25.0462C11.2972 24.7343 10.9428 24.5783 10.4717 24.5783C10.1483 24.5783 9.88263 24.6511 9.67457 24.7967C9.46651 24.9422 9.31207 25.1439 9.21123 25.4017C9.1104 25.6594 9.05998 25.9583 9.05998 26.2983C9.05998 26.8233 9.17943 27.2418 9.41832 27.5538C9.65721 27.8657 10.0083 28.0217 10.4717 28.0217ZM20.75 29L20.7517 25.7217C20.7517 25.3494 20.6596 25.0592 20.4754 24.8508C20.2912 24.6425 20.0433 24.5383 19.7317 24.5383C19.5378 24.5383 19.3643 24.5832 19.2112 24.6729C19.0582 24.7626 18.9366 24.8926 18.8466 25.0629C18.7566 25.2332 18.7116 25.4378 18.7116 25.6767L18.175 25.36C18.1722 24.9856 18.2566 24.6558 18.4283 24.3708C18.6 24.0858 18.8321 23.8639 19.1246 23.705C19.4171 23.5461 19.7433 23.4667 20.1033 23.4667C20.7022 23.4667 21.1605 23.6454 21.4783 24.0029C21.7961 24.3604 21.955 24.8317 21.955 25.4167L21.9533 29H20.75ZM14.2567 29V23.6H15.3216V25.275H15.4683V29H14.2567ZM17.5083 29L17.51 25.7333C17.51 25.3583 17.4183 25.0654 17.235 24.8546C17.0517 24.6437 16.8022 24.5383 16.4867 24.5383C16.1805 24.5383 15.9343 24.6435 15.7479 24.8537C15.5615 25.064 15.4683 25.3383 15.4683 25.6767L14.9317 25.3167C14.9317 24.9644 15.0183 24.649 15.1917 24.3704C15.365 24.0918 15.5989 23.8715 15.8933 23.7096C16.1878 23.5476 16.5189 23.4667 16.8866 23.4667C17.29 23.4667 17.6271 23.5524 17.8979 23.7237C18.1687 23.8951 18.3721 24.1283 18.5079 24.4233C18.6437 24.7183 18.7116 25.0511 18.7116 25.4217L18.71 29H17.5083ZM29.74 29L29.7417 25.7217C29.7417 25.3494 29.6496 25.0592 29.4654 24.8508C29.2812 24.6425 29.0333 24.5383 28.7217 24.5383C28.5278 24.5383 28.3543 24.5832 28.2012 24.6729C28.0482 24.7626 27.9267 24.8926 27.8366 25.0629C27.7466 25.2332 27.7016 25.4378 27.7016 25.6767L27.165 25.36C27.1622 24.9856 27.2467 24.6558 27.4183 24.3708C27.59 24.0858 27.8221 23.8639 28.1146 23.705C28.4071 23.5461 28.7333 23.4667 29.0933 23.4667C29.6922 23.4667 30.1505 23.6454 30.4683 24.0029C30.7861 24.3604 30.945 24.8317 30.945 25.4167L30.9433 29H29.74ZM23.2467 29V23.6H24.3117V25.275H24.4583V29H23.2467ZM26.4983 29L26.5 25.7333C26.5 25.3583 26.4083 25.0654 26.225 24.8546C26.0417 24.6437 25.7922 24.5383 25.4767 24.5383C25.1705 24.5383 24.9243 24.6435 24.7379 24.8537C24.5515 25.064 24.4583 25.3383 24.4583 25.6767L23.9217 25.3167C23.9217 24.9644 24.0083 24.649 24.1817 24.3704C24.355 24.0918 24.5889 23.8715 24.8833 23.7096C25.1778 23.5476 25.5089 23.4667 25.8766 23.4667C26.28 23.4667 26.6171 23.5524 26.8879 23.7237C27.1587 23.8951 27.3621 24.1283 27.4979 24.4233C27.6337 24.7183 27.7016 25.0511 27.7016 25.4217L27.7 29H26.4983ZM34.2683 29.1533C33.87 29.1533 33.5407 29.0872 33.2804 28.955C33.0201 28.8228 32.8133 28.6529 32.66 28.4454C32.5067 28.2379 32.3933 28.0174 32.32 27.7838C32.2467 27.5501 32.1992 27.329 32.1775 27.1204C32.1558 26.9118 32.145 26.7433 32.145 26.615V23.6H33.365V26.2017C33.365 26.3683 33.3771 26.5552 33.4012 26.7621C33.4254 26.969 33.4794 27.1685 33.5633 27.3604C33.6472 27.5524 33.7733 27.71 33.9417 27.8334C34.11 27.9567 34.3383 28.0184 34.6267 28.0184C34.7789 28.0184 34.9299 27.9935 35.0796 27.9438C35.2293 27.894 35.3647 27.8088 35.4858 27.6879C35.607 27.5671 35.7043 27.3996 35.7779 27.1854C35.8515 26.9713 35.8883 26.7011 35.8883 26.375L36.6033 26.6817C36.6033 27.14 36.5142 27.5563 36.3358 27.9304C36.1575 28.3046 35.8953 28.6019 35.5492 28.8225C35.2031 29.0431 34.7761 29.1533 34.2683 29.1533ZM36.035 29V27.325H35.8883V23.6H37.1V29H36.035ZM42.235 29V26.3983C42.235 26.2311 42.2229 26.0442 42.1988 25.8375C42.1746 25.6308 42.1206 25.4315 42.0367 25.2396C41.9528 25.0476 41.8267 24.89 41.6583 24.7666C41.49 24.6433 41.2617 24.5816 40.9733 24.5816C40.8211 24.5816 40.6701 24.6065 40.5204 24.6562C40.3707 24.706 40.2353 24.7912 40.1141 24.9121C39.993 25.0329 39.8957 25.1997 39.8221 25.4125C39.7485 25.6253 39.7116 25.8961 39.7116 26.225L38.9967 25.9183C38.9967 25.46 39.0858 25.0437 39.2642 24.6696C39.4425 24.2954 39.7047 23.9981 40.0508 23.7775C40.3969 23.5569 40.8239 23.4467 41.3317 23.4467C41.73 23.4467 42.0593 23.5128 42.3196 23.645C42.5798 23.7772 42.7866 23.9471 42.94 24.1546C43.0933 24.3621 43.2066 24.5826 43.28 24.8162C43.3533 25.0499 43.4008 25.271 43.4225 25.4796C43.4442 25.6882 43.455 25.8567 43.455 25.985V29H42.235ZM38.4917 29V23.6H39.565V25.275H39.7116V29H38.4917ZM44.855 22.7817V21.675H46.0583V22.7817H44.855ZM44.855 29V23.6H46.0583V29H44.855ZM50.725 29C50.3689 29.0683 50.0196 29.0978 49.6771 29.0883C49.3346 29.0789 49.0288 29.0156 48.7596 28.8983C48.4904 28.7811 48.2861 28.5939 48.1467 28.3367C48.0222 28.1017 47.9564 27.8628 47.9492 27.62C47.942 27.3772 47.9383 27.1017 47.9383 26.7933V22.1H49.1417V26.7267C49.1417 26.9406 49.1442 27.1296 49.1492 27.2938C49.1542 27.4579 49.1883 27.5922 49.2517 27.6967C49.3717 27.895 49.563 28.0057 49.8258 28.0288C50.0886 28.0518 50.3883 28.0395 50.725 27.9917V29ZM46.96 24.545V23.6H50.725V24.545H46.96ZM52.45 31.4L53.4917 28.5467L53.51 29.3867L51.1567 23.6H52.4083L54.0783 27.8817H53.7583L55.3833 23.6H56.5916L53.5783 31.4H52.45Z" fill="#9CA3AF"/>
</svg>
