<svg width="48" height="60" viewBox="0 0 48 60" fill="none" xmlns="http://www.w3.org/2000/svg">
<rect width="48" height="48" rx="24" fill="#ECFDF5"/>
<path d="M22.8333 34.5V25.1958V25.1958C21.5889 25.1958 20.3931 24.9576 19.2458 24.4812C18.0986 24.0049 17.0875 23.3292 16.2125 22.4542C15.3375 21.5792 14.6667 20.5681 14.2 19.4208C13.7333 18.2736 13.5 17.0778 13.5 15.8333V13.5H15.8333C17.0583 13.5 18.2444 13.7382 19.3917 14.2146C20.5389 14.691 21.55 15.3667 22.425 16.2417C23.0278 16.8444 23.5285 17.5056 23.9271 18.225C24.3257 18.9444 24.6319 19.7125 24.8458 20.5292C24.9431 20.3931 25.05 20.2618 25.1667 20.1354C25.2833 20.009 25.4097 19.8778 25.5458 19.7417C26.4208 18.8667 27.4319 18.191 28.5792 17.7146C29.7264 17.2382 30.9222 17 32.1667 17H34.5V19.3333C34.5 20.5778 34.2618 21.7736 33.7854 22.9208C33.309 24.0681 32.6333 25.0792 31.7583 25.9542C30.8833 26.8292 29.8771 27.5 28.7396 27.9667C27.6021 28.4333 26.4111 28.6667 25.1667 28.6667V28.6667V34.5H22.8333V34.5M22.8333 22.8333C22.8333 21.9 22.6535 21.0104 22.2937 20.1646C21.934 19.3187 21.4236 18.5653 20.7625 17.9042C20.1014 17.2431 19.3479 16.7326 18.5021 16.3729C17.6562 16.0132 16.7667 15.8333 15.8333 15.8333C15.8333 16.7667 16.0083 17.6611 16.3583 18.5167C16.7083 19.3722 17.2139 20.1306 17.875 20.7917C18.5361 21.4528 19.2944 21.9583 20.15 22.3083C21.0056 22.6583 21.9 22.8333 22.8333 22.8333V22.8333M25.1667 26.3333C26.1 26.3333 26.9896 26.1583 27.8354 25.8083C28.6813 25.4583 29.4347 24.9528 30.0958 24.2917C30.7569 23.6306 31.2674 22.8722 31.6271 22.0167C31.9868 21.1611 32.1667 20.2667 32.1667 19.3333C31.2333 19.3333 30.3389 19.5132 29.4833 19.8729C28.6278 20.2326 27.8694 20.7431 27.2083 21.4042C26.5472 22.0653 26.0417 22.8187 25.6917 23.6646C25.3417 24.5104 25.1667 25.4 25.1667 26.3333V26.3333M25.1667 26.3333V26.3333V26.3333V26.3333V26.3333V26.3333V26.3333V26.3333V26.3333V26.3333M22.8333 22.8333V22.8333V22.8333V22.8333V22.8333V22.8333V22.8333V22.8333V22.8333V22.8333" fill="#13EC49"/>
</svg>
