<svg width="43" height="56" viewBox="0 0 43 37" fill="none" xmlns="http://www.w3.org/2000/svg">
<path d="M21.135 13C20.035 13 19.0933 12.6083 18.31 11.825C17.5267 11.0417 17.135 10.1 17.135 9C17.135 7.9 17.5267 6.95833 18.31 6.175C19.0933 5.39167 20.035 5 21.135 5C22.235 5 23.1767 5.39167 23.96 6.175C24.7433 6.95833 25.135 7.9 25.135 9C25.135 10.1 24.7433 11.0417 23.96 11.825C23.1767 12.6083 22.235 13 21.135 13ZM21.135 11C21.685 11 22.1558 10.8042 22.5475 10.4125C22.9392 10.0208 23.135 9.55 23.135 9C23.135 8.45 22.9392 7.97917 22.5475 7.5875C22.1558 7.19583 21.685 7 21.135 7C20.585 7 20.1142 7.19583 19.7225 7.5875C19.3308 7.97917 19.135 8.45 19.135 9C19.135 9.55 19.3308 10.0208 19.7225 10.4125C20.1142 10.8042 20.585 11 21.135 11ZM14.135 18C13.585 18 13.1142 17.8042 12.7225 17.4125C12.3308 17.0208 12.135 16.55 12.135 16V12H14.135V16H18.135V18H14.135ZM24.135 18V16H28.135V12H30.135V16C30.135 16.55 29.9392 17.0208 29.5475 17.4125C29.1558 17.8042 28.685 18 28.135 18H24.135ZM12.135 6V2C12.135 1.45 12.3308 0.979167 12.7225 0.5875C13.1142 0.195833 13.585 0 14.135 0H18.135V2H14.135V6H12.135ZM28.135 6V2H24.135V0H28.135C28.685 0 29.1558 0.195833 29.5475 0.5875C29.9392 0.979167 30.135 1.45 30.135 2V6H28.135Z" fill="#94A3B8"/>
<path d="M6.74316 29.4893C6.74316 30.1989 6.60482 30.8198 6.32812 31.3521C6.05143 31.8843 5.65918 32.292 5.15137 32.5752C4.64355 32.8584 4.05762 33 3.39355 33H0.820312V26.1201H3.0957C4.26107 26.1201 5.16032 26.4123 5.79346 26.9966C6.4266 27.5809 6.74316 28.4118 6.74316 29.4893ZM5.80566 29.4893C5.80566 28.6364 5.5721 27.9862 5.10498 27.5386C4.63786 27.091 3.96159 26.8672 3.07617 26.8672H1.75293V32.2529H3.28613C3.79069 32.2529 4.23421 32.1423 4.6167 31.9209C4.99919 31.6995 5.29297 31.3805 5.49805 30.9639C5.70312 30.5472 5.80566 30.0557 5.80566 29.4893ZM7.89062 26.5938V25.7539H8.76953V26.5938H7.89062ZM7.89062 33V27.7168H8.76953V33H7.89062ZM11.4648 33.0977C10.9342 33.0977 10.5355 32.9577 10.2686 32.6777C10.0016 32.3978 9.86816 32.0137 9.86816 31.5254C9.86816 30.9785 10.048 30.5586 10.4077 30.2656C10.7674 29.9727 11.3477 29.8164 12.1484 29.7969L13.335 29.7773V29.4893C13.335 29.0596 13.2438 28.752 13.0615 28.5664C12.8792 28.3809 12.5928 28.2881 12.2021 28.2881C11.8083 28.2881 11.5218 28.3548 11.3428 28.4883C11.1637 28.6217 11.0563 28.835 11.0205 29.1279L10.1025 29.0449C10.2523 28.0944 10.9587 27.6191 12.2217 27.6191C12.8857 27.6191 13.3854 27.7713 13.7207 28.0757C14.056 28.38 14.2236 28.8203 14.2236 29.3965V31.6719C14.2236 31.9323 14.2578 32.1284 14.3262 32.2603C14.3945 32.3921 14.5247 32.458 14.7168 32.458C14.8014 32.458 14.8975 32.4466 15.0049 32.4238V32.9707C14.7835 33.0228 14.5573 33.0488 14.3262 33.0488C14.0007 33.0488 13.7638 32.9634 13.6157 32.7925C13.4676 32.6216 13.3838 32.3538 13.3643 31.9893H13.335C13.1104 32.3929 12.8491 32.6785 12.5513 32.8462C12.2534 33.0138 11.8913 33.0977 11.4648 33.0977ZM11.665 32.4385C11.9873 32.4385 12.2738 32.3652 12.5244 32.2188C12.7751 32.0723 12.9728 31.8713 13.1177 31.6157C13.2625 31.3602 13.335 31.0973 13.335 30.8271V30.3926L12.373 30.4121C11.9596 30.4186 11.6463 30.4609 11.4331 30.5391C11.2199 30.6172 11.0563 30.7376 10.9424 30.9004C10.8285 31.0632 10.7715 31.2764 10.7715 31.54C10.7715 31.8265 10.8488 32.0479 11.0034 32.2041C11.158 32.3604 11.3786 32.4385 11.665 32.4385ZM17.6807 35.0752C17.1045 35.0752 16.6455 34.9621 16.3037 34.7358C15.9619 34.5096 15.7422 34.1882 15.6445 33.7715L16.5283 33.6445C16.5869 33.8887 16.7163 34.0767 16.9165 34.2085C17.1167 34.3403 17.3796 34.4062 17.7051 34.4062C18.5807 34.4062 19.0186 33.8936 19.0186 32.8682V32.0186H19.0088C18.8428 32.3571 18.6149 32.6118 18.3252 32.7827C18.0355 32.9536 17.6969 33.0391 17.3096 33.0391C16.6618 33.0391 16.1857 32.8242 15.8813 32.3945C15.577 31.9648 15.4248 31.2894 15.4248 30.3682C15.4248 29.4339 15.5884 28.7446 15.9155 28.3003C16.2427 27.856 16.7399 27.6338 17.4072 27.6338C17.7816 27.6338 18.1063 27.7192 18.3813 27.8901C18.6564 28.061 18.8688 28.3044 19.0186 28.6201H19.0283C19.0283 28.5225 19.0348 28.3532 19.0479 28.1123C19.0609 27.8714 19.0739 27.7396 19.0869 27.7168H19.9219C19.9023 27.8926 19.8926 28.2572 19.8926 28.8105V32.8486C19.8926 34.333 19.1553 35.0752 17.6807 35.0752ZM19.0186 30.3584C19.0186 29.9287 18.96 29.5584 18.8428 29.2476C18.7256 28.9367 18.5604 28.6991 18.3472 28.5347C18.134 28.3703 17.8923 28.2881 17.6221 28.2881C17.1729 28.2881 16.8457 28.4508 16.6406 28.7764C16.4355 29.1019 16.333 29.6292 16.333 30.3584C16.333 31.0811 16.429 31.6003 16.6211 31.916C16.8132 32.2318 17.1419 32.3896 17.6074 32.3896C17.8841 32.3896 18.1299 32.3083 18.3447 32.1455C18.5596 31.9827 18.7256 31.7492 18.8428 31.4448C18.96 31.1405 19.0186 30.7783 19.0186 30.3584ZM24.5947 33V29.6504C24.5947 29.3021 24.5605 29.0319 24.4922 28.8398C24.4238 28.6478 24.3148 28.5094 24.165 28.4248C24.0153 28.3402 23.7956 28.2979 23.5059 28.2979C23.0827 28.2979 22.749 28.4427 22.5049 28.7324C22.2607 29.0221 22.1387 29.4242 22.1387 29.9385V33H21.2598V28.8447C21.2598 28.2295 21.25 27.8535 21.2305 27.7168H22.0605C22.0638 27.7331 22.0671 27.777 22.0703 27.8486C22.0736 27.9202 22.0776 28.0024 22.0825 28.0952C22.0874 28.188 22.0931 28.363 22.0996 28.6201H22.1143C22.3161 28.2555 22.5496 27.9976 22.8149 27.8462C23.0802 27.6948 23.4098 27.6191 23.8037 27.6191C24.3831 27.6191 24.8071 27.7632 25.0757 28.0513C25.3442 28.3394 25.4785 28.8154 25.4785 29.4795V33H24.5947ZM31.2695 30.3535C31.2695 31.278 31.0661 31.9665 30.6592 32.4189C30.2523 32.8714 29.6615 33.0977 28.8867 33.0977C28.1152 33.0977 27.5326 32.8625 27.1387 32.3921C26.7448 31.9217 26.5479 31.2422 26.5479 30.3535C26.5479 28.5306 27.3372 27.6191 28.916 27.6191C29.7233 27.6191 30.3174 27.8413 30.6982 28.2856C31.0791 28.73 31.2695 29.4193 31.2695 30.3535ZM30.3467 30.3535C30.3467 29.6243 30.2384 29.0946 30.022 28.7642C29.8055 28.4338 29.4417 28.2686 28.9307 28.2686C28.4163 28.2686 28.0444 28.437 27.8149 28.7739C27.5854 29.1108 27.4707 29.6374 27.4707 30.3535C27.4707 31.0501 27.5838 31.5734 27.8101 31.9233C28.0363 32.2733 28.3919 32.4482 28.877 32.4482C29.4043 32.4482 29.7811 32.279 30.0073 31.9404C30.2336 31.6019 30.3467 31.0729 30.3467 30.3535ZM36.3281 31.54C36.3281 32.0381 36.1401 32.4222 35.7642 32.6924C35.3882 32.9626 34.8617 33.0977 34.1846 33.0977C33.527 33.0977 33.02 32.9894 32.6636 32.7729C32.3071 32.5565 32.0752 32.2188 31.9678 31.7598L32.7441 31.6084C32.819 31.8916 32.9736 32.0991 33.208 32.231C33.4424 32.3628 33.7679 32.4287 34.1846 32.4287C34.6305 32.4287 34.9569 32.3604 35.1636 32.2236C35.3703 32.0869 35.4736 31.8818 35.4736 31.6084C35.4736 31.4001 35.402 31.2308 35.2588 31.1006C35.1156 30.9704 34.8844 30.863 34.5654 30.7783L33.9355 30.6123C33.431 30.4821 33.0721 30.3543 32.8589 30.229C32.6457 30.1037 32.4788 29.9515 32.3584 29.7725C32.238 29.5934 32.1777 29.3737 32.1777 29.1133C32.1777 28.6315 32.3494 28.2645 32.6929 28.0122C33.0363 27.7599 33.5368 27.6338 34.1943 27.6338C34.777 27.6338 35.2401 27.7363 35.5835 27.9414C35.9269 28.1465 36.1442 28.4753 36.2354 28.9277L35.4443 29.0254C35.3955 28.791 35.2645 28.6112 35.0513 28.4858C34.8381 28.3605 34.5524 28.2979 34.1943 28.2979C33.7972 28.2979 33.5042 28.3581 33.3154 28.4785C33.1266 28.599 33.0322 28.7812 33.0322 29.0254C33.0322 29.1751 33.0713 29.2988 33.1494 29.3965C33.2275 29.4941 33.3431 29.5771 33.4961 29.6455C33.6491 29.7139 33.9714 29.8083 34.4629 29.9287C34.9284 30.0459 35.2637 30.1541 35.4688 30.2534C35.6738 30.3527 35.8358 30.4626 35.9546 30.583C36.0734 30.7035 36.1654 30.8426 36.2305 31.0005C36.2956 31.1584 36.3281 31.3382 36.3281 31.54ZM38.0371 30.5439C38.0371 31.1494 38.1624 31.6165 38.4131 31.9453C38.6637 32.2741 39.0299 32.4385 39.5117 32.4385C39.8926 32.4385 40.1978 32.362 40.4272 32.209C40.6567 32.056 40.8122 31.8623 40.8936 31.6279L41.665 31.8477C41.3493 32.681 40.6315 33.0977 39.5117 33.0977C38.7305 33.0977 38.1356 32.8649 37.7271 32.3994C37.3185 31.9339 37.1143 31.2422 37.1143 30.3242C37.1143 29.4518 37.3185 28.7829 37.7271 28.3174C38.1356 27.8519 38.7191 27.6191 39.4775 27.6191C41.0303 27.6191 41.8066 28.555 41.8066 30.4268V30.5439H38.0371ZM40.8984 29.8701C40.8496 29.3135 40.708 28.9074 40.4736 28.6519C40.2393 28.3963 39.9023 28.2686 39.4629 28.2686C39.0365 28.2686 38.6987 28.411 38.4497 28.6958C38.2007 28.9806 38.0664 29.3721 38.0469 29.8701H40.8984Z" fill="#94A3B8"/>
</svg>
