<svg width="48" height="60" viewBox="0 0 48 60" fill="none" xmlns="http://www.w3.org/2000/svg">
<rect width="48" height="48" rx="24" fill="#ECFDF5"/>
<path d="M22.8334 34.5V32.1667H32.1667V32.1667V32.1667V23.8833C32.1667 21.6083 31.3743 19.6785 29.7896 18.0938C28.2049 16.509 26.275 15.7167 24 15.7167C21.725 15.7167 19.7952 16.509 18.2105 18.0938C16.6257 19.6785 15.8334 21.6083 15.8334 23.8833V31H14.6667C14.025 31 13.4757 30.7715 13.0188 30.3146C12.5618 29.8576 12.3334 29.3083 12.3334 28.6667V26.3333C12.3334 25.925 12.4355 25.541 12.6396 25.1812C12.8438 24.8215 13.1306 24.5347 13.5 24.3208L13.5875 22.775C13.7431 21.4528 14.1271 20.2278 14.7396 19.1C15.3521 17.9722 16.1202 16.9903 17.0438 16.1542C17.9674 15.3181 19.0271 14.6667 20.223 14.2C21.4188 13.7333 22.6778 13.5 24 13.5C25.3223 13.5 26.5764 13.7333 27.7625 14.2C28.9487 14.6667 30.0084 15.3132 30.9417 16.1396C31.875 16.966 32.6431 17.9431 33.2459 19.0708C33.8487 20.1986 34.2375 21.4236 34.4125 22.7458L34.5 24.2625C34.8695 24.4375 35.1563 24.7 35.3605 25.05C35.5646 25.4 35.6667 25.7694 35.6667 26.1583V28.8417C35.6667 29.2306 35.5646 29.6 35.3605 29.95C35.1563 30.3 34.8695 30.5625 34.5 30.7375V32.1667C34.5 32.8083 34.2716 33.3576 33.8146 33.8146C33.3577 34.2715 32.8084 34.5 32.1667 34.5H22.8334V34.5M20.5 26.3333C20.1695 26.3333 19.8924 26.2215 19.6688 25.9979C19.4452 25.7743 19.3334 25.4972 19.3334 25.1667C19.3334 24.8361 19.4452 24.559 19.6688 24.3354C19.8924 24.1118 20.1695 24 20.5 24C20.8306 24 21.1077 24.1118 21.3313 24.3354C21.5549 24.559 21.6667 24.8361 21.6667 25.1667C21.6667 25.4972 21.5549 25.7743 21.3313 25.9979C21.1077 26.2215 20.8306 26.3333 20.5 26.3333V26.3333M27.5 26.3333C27.1695 26.3333 26.8924 26.2215 26.6688 25.9979C26.4452 25.7743 26.3334 25.4972 26.3334 25.1667C26.3334 24.8361 26.4452 24.559 26.6688 24.3354C26.8924 24.1118 27.1695 24 27.5 24C27.8306 24 28.1077 24.1118 28.3313 24.3354C28.5549 24.559 28.6667 24.8361 28.6667 25.1667C28.6667 25.4972 28.5549 25.7743 28.3313 25.9979C28.1077 26.2215 27.8306 26.3333 27.5 26.3333V26.3333M17.0292 24.525C16.8931 22.4639 17.5153 20.6944 18.8959 19.2167C20.2764 17.7389 21.9973 17 24.0584 17C25.7889 17 27.3105 17.5493 28.623 18.6479C29.9355 19.7465 30.7278 21.1514 31 22.8625C29.2306 22.8431 27.6021 22.3667 26.1146 21.4333C24.6271 20.5 23.4848 19.2361 22.6875 17.6417C22.3764 19.1972 21.7202 20.5826 20.7188 21.7979C19.7174 23.0132 18.4875 23.9222 17.0292 24.525V24.525" fill="#13EC49"/>
</svg>
