<svg width="50" height="60" viewBox="0 0 47 37" fill="none" xmlns="http://www.w3.org/2000/svg">
<path d="M23.115 18C20.815 18 18.8108 17.2375 17.1025 15.7125C15.3942 14.1875 14.415 12.2833 14.165 10H16.215C16.4483 11.7333 17.2192 13.1667 18.5275 14.3C19.8358 15.4333 21.365 16 23.115 16C25.065 16 26.7192 15.3208 28.0775 13.9625C29.4358 12.6042 30.115 10.95 30.115 9C30.115 7.05 29.4358 5.39583 28.0775 4.0375C26.7192 2.67917 25.065 2 23.115 2C21.965 2 20.89 2.26667 19.89 2.8C18.89 3.33333 18.0483 4.06667 17.365 5H20.115V7H14.115V1H16.115V3.35C16.965 2.28333 18.0025 1.45833 19.2275 0.875C20.4525 0.291667 21.7483 0 23.115 0C24.365 0 25.5358 0.2375 26.6275 0.7125C27.7192 1.1875 28.6692 1.82917 29.4775 2.6375C30.2858 3.44583 30.9275 4.39583 31.4025 5.4875C31.8775 6.57917 32.115 7.75 32.115 9C32.115 10.25 31.8775 11.4208 31.4025 12.5125C30.9275 13.6042 30.2858 14.5542 29.4775 15.3625C28.6692 16.1708 27.7192 16.8125 26.6275 17.2875C25.5358 17.7625 24.365 18 23.115 18V18M25.915 13.2L22.115 9.4V4H24.115V8.6L27.315 11.8L25.915 13.2V13.2" fill="#9CA3AF"/>
<path d="M0.7 33V25.8H1.90331V28.8317H5.31334V25.8H6.51665V33H5.31334V29.96H1.90331V33H0.7ZM8.515 33V25.8H9.71831V33H8.515ZM14.385 33.15C13.8594 33.15 13.3858 33.0583 12.9642 32.875C12.5425 32.6917 12.1958 32.4293 11.9242 32.0879C11.6525 31.7465 11.4789 31.34 11.4033 30.8683L12.6566 30.68C12.7616 31.1067 12.98 31.437 13.3116 31.6708C13.6433 31.9047 14.0261 32.0217 14.46 32.0217C14.7161 32.0217 14.9578 31.9814 15.185 31.9008C15.4122 31.8203 15.5965 31.7029 15.7379 31.5488C15.8793 31.3946 15.95 31.2072 15.95 30.9867C15.95 30.885 15.9335 30.7921 15.9004 30.7079C15.8674 30.6237 15.8185 30.5482 15.7537 30.4812C15.689 30.4143 15.606 30.3536 15.5046 30.2992C15.4032 30.2447 15.2844 30.1967 15.1483 30.155L13.29 29.6067C13.13 29.5605 12.9572 29.4978 12.7717 29.4183C12.5861 29.3389 12.4111 29.2305 12.2467 29.0933C12.0822 28.9561 11.9472 28.7798 11.8417 28.5646C11.7361 28.3493 11.6833 28.0828 11.6833 27.765C11.6833 27.3011 11.8012 26.9121 12.0371 26.5979C12.2729 26.2838 12.5897 26.0479 12.9875 25.8904C13.3853 25.7329 13.8283 25.6556 14.3167 25.6583C14.8089 25.6639 15.2486 25.7492 15.6358 25.9142C16.023 26.0792 16.3462 26.3178 16.6054 26.63C16.8646 26.9422 17.0478 27.3211 17.155 27.7667L15.86 27.9883C15.8078 27.7355 15.7053 27.5204 15.5525 27.3429C15.3997 27.1654 15.2143 27.0297 14.9963 26.9358C14.7782 26.8419 14.5461 26.7922 14.3 26.7866C14.0594 26.7811 13.8369 26.8162 13.6325 26.8921C13.428 26.9679 13.2632 27.0755 13.1379 27.215C13.0126 27.3544 12.95 27.5178 12.95 27.705C12.95 27.8833 13.0032 28.0278 13.1096 28.1383C13.216 28.2489 13.3489 28.3371 13.5083 28.4029C13.6678 28.4688 13.8283 28.5233 13.99 28.5667L15.28 28.925C15.4567 28.9728 15.6547 29.0367 15.8742 29.1167C16.0936 29.1967 16.305 29.3082 16.5083 29.4513C16.7117 29.5943 16.8794 29.7826 17.0117 30.0163C17.1439 30.2499 17.21 30.5456 17.21 30.9033C17.21 31.2772 17.1329 31.6051 16.9787 31.8871C16.8246 32.169 16.6153 32.4032 16.3508 32.5896C16.0864 32.776 15.7849 32.916 15.4462 33.0096C15.1076 33.1032 14.7539 33.15 14.385 33.15ZM20.5267 33V26.9283H18.195V25.8H24.0617V26.9283H21.73V33H20.5267ZM28.4067 33.15C27.6872 33.15 27.0703 32.9928 26.5558 32.6783C26.0414 32.3639 25.6468 31.925 25.3721 31.3617C25.0974 30.7983 24.96 30.1444 24.96 29.4C24.96 28.6556 25.0974 28.0017 25.3721 27.4383C25.6468 26.875 26.0414 26.4361 26.5558 26.1217C27.0703 25.8072 27.6872 25.65 28.4067 25.65C29.1261 25.65 29.743 25.8072 30.2575 26.1217C30.7719 26.4361 31.1665 26.875 31.4412 27.4383C31.716 28.0017 31.8533 28.6556 31.8533 29.4C31.8533 30.1444 31.716 30.7983 31.4412 31.3617C31.1665 31.925 30.7719 32.3639 30.2575 32.6783C29.743 32.9928 29.1261 33.15 28.4067 33.15ZM28.4067 32.0134C28.89 32.0189 29.2924 31.9132 29.6138 31.6963C29.9351 31.4793 30.1763 31.1736 30.3371 30.7792C30.4979 30.3847 30.5783 29.925 30.5783 29.4C30.5783 28.875 30.4979 28.4179 30.3371 28.0287C30.1763 27.6396 29.9351 27.3367 29.6138 27.12C29.2924 26.9033 28.89 26.7922 28.4067 26.7866C27.9233 26.7811 27.5212 26.8867 27.2004 27.1033C26.8796 27.32 26.6387 27.6257 26.4779 28.0204C26.3171 28.4151 26.2361 28.875 26.235 29.4C26.2339 29.925 26.3137 30.382 26.4746 30.7708C26.6354 31.1597 26.8768 31.4627 27.1987 31.6796C27.5207 31.8965 27.9233 32.0078 28.4067 32.0134ZM33.355 33V25.8H36.33C36.4 25.8 36.4904 25.8025 36.6012 25.8075C36.7121 25.8125 36.8139 25.8233 36.9067 25.84C37.3228 25.9044 37.6667 26.0435 37.9383 26.2571C38.21 26.4707 38.4115 26.7394 38.5429 27.0633C38.6743 27.3872 38.74 27.7472 38.74 28.1433C38.74 28.7317 38.5917 29.2365 38.295 29.6579C37.9983 30.0793 37.5433 30.3405 36.93 30.4417L36.4167 30.4867H34.5583V33H33.355ZM37.49 33L36.07 30.07L37.2967 29.8L38.8567 33H37.49ZM34.5583 29.3583H36.28C36.3478 29.3583 36.4229 29.355 36.5054 29.3483C36.5879 29.3417 36.665 29.3289 36.7367 29.31C36.9355 29.2595 37.0924 29.171 37.2071 29.0446C37.3218 28.9182 37.4032 28.7747 37.4513 28.6142C37.4993 28.4536 37.5233 28.2967 37.5233 28.1433C37.5233 27.99 37.4993 27.833 37.4513 27.6725C37.4032 27.5119 37.3218 27.3685 37.2071 27.2421C37.0924 27.1157 36.9355 27.0272 36.7367 26.9766C36.665 26.9572 36.5879 26.9443 36.5054 26.9379C36.4229 26.9315 36.3478 26.9283 36.28 26.9283H34.5583V29.3583ZM42.0633 33V30.0483L39.615 25.8H41.02L42.6733 28.6684L44.325 25.8H45.73L43.2833 30.0483V33H42.0633Z" fill="#9CA3AF"/>
</svg>
