<svg width="48" height="60" viewBox="0 0 48 60" fill="none" xmlns="http://www.w3.org/2000/svg">
<rect width="48" height="48" rx="24" fill="#ECFDF5"/>
<path d="M20.2083 33.3334C19.5667 33.3334 19.0174 33.1049 18.5604 32.648C18.1035 32.1911 17.875 31.6417 17.875 31.0001V27.5001H21.375V24.8751C20.6944 24.8362 20.0479 24.6855 19.4354 24.423C18.8229 24.1605 18.2639 23.7667 17.7583 23.2417V21.9584H16.4167L12.625 18.1667C13.325 17.2723 14.1903 16.6404 15.2208 16.2709C16.2514 15.9015 17.2917 15.7167 18.3417 15.7167C18.8667 15.7167 19.3771 15.7556 19.8729 15.8334C20.3688 15.9112 20.8694 16.057 21.375 16.2709V14.6667H35.375V29.8334C35.375 30.8056 35.0347 31.632 34.3542 32.3126C33.6736 32.9931 32.8472 33.3334 31.875 33.3334H20.2083V33.3334M23.7083 27.5001H30.7083V29.8334C30.7083 30.164 30.8201 30.4411 31.0438 30.6647C31.2674 30.8883 31.5444 31.0001 31.875 31.0001C32.2056 31.0001 32.4826 30.8883 32.7062 30.6647C32.9299 30.4411 33.0417 30.164 33.0417 29.8334V17.0001H23.7083V17.7001L30.7083 24.7001V26.3334H29.075L25.75 23.0084L25.5167 23.2417C25.2444 23.514 24.9576 23.757 24.6562 23.9709C24.3549 24.1848 24.0389 24.3501 23.7083 24.4667V27.5001V27.5001M17.4083 19.6251H20.0917V22.1334C20.325 22.289 20.5681 22.3959 20.8208 22.4542C21.0736 22.5126 21.3361 22.5417 21.6083 22.5417C22.0556 22.5417 22.459 22.4737 22.8188 22.3376C23.1785 22.2015 23.5333 21.9584 23.8833 21.6084L24.1167 21.3751L22.4833 19.7417C21.9194 19.1779 21.2875 18.7549 20.5875 18.473C19.8875 18.1911 19.1389 18.0501 18.3417 18.0501C17.9528 18.0501 17.5833 18.0792 17.2333 18.1376C16.8833 18.1959 16.5333 18.2834 16.1833 18.4001L17.4083 19.6251V19.6251M28.375 29.8334H20.2083V31.0001V31.0001V31.0001H28.55C28.4917 30.8251 28.4479 30.6404 28.4187 30.4459C28.3896 30.2515 28.375 30.0473 28.375 29.8334V29.8334M20.2083 31.0001C20.2083 30.8251 20.2083 30.6404 20.2083 30.4459C20.2083 30.2515 20.2083 30.0473 20.2083 29.8334V29.8334C20.2083 30.0279 20.2083 30.2223 20.2083 30.4167C20.2083 30.6112 20.2083 30.8056 20.2083 31.0001V31.0001V31.0001V31.0001" fill="#13EC49"/>
</svg>
