<svg width="44" height="56" viewBox="0 0 44 56" fill="none" xmlns="http://www.w3.org/2000/svg">
<path d="M14.565 26.6667H18.065V19.6667H25.065V26.6667H28.565V16.1667L21.565 10.9167L14.565 16.1667V26.6667ZM12.2317 29V15L21.565 8L30.8984 15V29H22.7317V22H20.3984V29H12.2317Z" fill="#94A3B8"/>
<path d="M8.7 44V36.8H9.90331V39.8317H13.3133V36.8H14.5167V44H13.3133V40.96H9.90331V44H8.7ZM18.4617 44.15C17.7422 44.15 17.1253 43.9928 16.6108 43.6783C16.0964 43.3639 15.7018 42.925 15.4271 42.3617C15.1524 41.7983 15.015 41.1444 15.015 40.4C15.015 39.6556 15.1524 39.0017 15.4271 38.4383C15.7018 37.875 16.0964 37.4361 16.6108 37.1217C17.1253 36.8072 17.7422 36.65 18.4617 36.65C19.1811 36.65 19.798 36.8072 20.3125 37.1217C20.8269 37.4361 21.2215 37.875 21.4962 38.4383C21.771 39.0017 21.9083 39.6556 21.9083 40.4C21.9083 41.1444 21.771 41.7983 21.4962 42.3617C21.2215 42.925 20.8269 43.3639 20.3125 43.6783C19.798 43.9928 19.1811 44.15 18.4617 44.15ZM18.4617 43.0134C18.945 43.0189 19.3474 42.9132 19.6688 42.6963C19.9901 42.4793 20.2313 42.1736 20.3921 41.7792C20.5529 41.3847 20.6333 40.925 20.6333 40.4C20.6333 39.875 20.5529 39.4179 20.3921 39.0287C20.2313 38.6396 19.9901 38.3367 19.6688 38.12C19.3474 37.9033 18.945 37.7922 18.4617 37.7866C17.9783 37.7811 17.5762 37.8867 17.2554 38.1033C16.9346 38.32 16.6937 38.6257 16.5329 39.0204C16.3721 39.4151 16.2911 39.875 16.29 40.4C16.2889 40.925 16.3687 41.382 16.5296 41.7708C16.6904 42.1597 16.9318 42.4627 17.2537 42.6796C17.5757 42.8965 17.9783 43.0078 18.4617 43.0134ZM22.41 44V36.8H23.4933L25.9867 41.8984L28.475 36.8H29.5617V43.9983H28.4333V39.385L26.225 44H25.7467L23.5383 39.385V44H22.41ZM30.46 44V36.8H35.11V37.9283H31.6633V39.7067H34.51V40.835H31.6633V42.8717H35.11V44H30.46Z" fill="#94A3B8"/>
</svg>
