<svg width="48" height="48" viewBox="0 0 48 48" fill="none" xmlns="http://www.w3.org/2000/svg">
<path d="M24 26.9167C23.0278 26.9167 22.2014 26.5764 21.5209 25.8959C20.8403 25.2153 20.5 24.3889 20.5 23.4167V16.4167C20.5 15.4445 20.8403 14.6181 21.5209 13.9375C22.2014 13.257 23.0278 12.9167 24 12.9167C24.9723 12.9167 25.7987 13.257 26.4792 13.9375C27.1598 14.6181 27.5 15.4445 27.5 16.4167V23.4167C27.5 24.3889 27.1598 25.2153 26.4792 25.8959C25.7987 26.5764 24.9723 26.9167 24 26.9167ZM22.8334 35.0834V31.4959C20.8112 31.2236 19.1389 30.3195 17.8167 28.7834C16.4945 27.2472 15.8334 25.4584 15.8334 23.4167H18.1667C18.1667 25.0306 18.7355 26.4063 19.873 27.5438C21.0105 28.6813 22.3862 29.25 24 29.25C25.6139 29.25 26.9896 28.6813 28.1271 27.5438C29.2646 26.4063 29.8334 25.0306 29.8334 23.4167H32.1667C32.1667 25.4584 31.5056 27.2472 30.1834 28.7834C28.8612 30.3195 27.1889 31.2236 25.1667 31.4959V35.0834H22.8334ZM24 24.5834C24.3306 24.5834 24.6077 24.4715 24.8313 24.2479C25.0549 24.0243 25.1667 23.7472 25.1667 23.4167V16.4167C25.1667 16.0861 25.0549 15.809 24.8313 15.5854C24.6077 15.3618 24.3306 15.25 24 15.25C23.6695 15.25 23.3924 15.3618 23.1688 15.5854C22.9452 15.809 22.8334 16.0861 22.8334 16.4167V23.4167C22.8334 23.7472 22.9452 24.0243 23.1688 24.2479C23.3924 24.4715 23.6695 24.5834 24 24.5834Z" fill="#000"/>
</svg>
