<svg width="27" height="57" viewBox="0 0 27 37" fill="none" xmlns="http://www.w3.org/2000/svg">
<path d="M9.34497 14C9.6283 14 9.8658 13.9042 10.0575 13.7125C10.2491 13.5208 10.345 13.2833 10.345 13C10.345 12.7167 10.2491 12.4792 10.0575 12.2875C9.8658 12.0958 9.6283 12 9.34497 12C9.06164 12 8.82414 12.0958 8.63247 12.2875C8.4408 12.4792 8.34497 12.7167 8.34497 13C8.34497 13.2833 8.4408 13.5208 8.63247 13.7125C8.82414 13.9042 9.06164 14 9.34497 14ZM9.34497 10C9.6283 10 9.8658 9.90417 10.0575 9.7125C10.2491 9.52083 10.345 9.28333 10.345 9C10.345 8.71667 10.2491 8.47917 10.0575 8.2875C9.8658 8.09583 9.6283 8 9.34497 8C9.06164 8 8.82414 8.09583 8.63247 8.2875C8.4408 8.47917 8.34497 8.71667 8.34497 9C8.34497 9.28333 8.4408 9.52083 8.63247 9.7125C8.82414 9.90417 9.06164 10 9.34497 10ZM9.34497 6C9.6283 6 9.8658 5.90417 10.0575 5.7125C10.2491 5.52083 10.345 5.28333 10.345 5C10.345 4.71667 10.2491 4.47917 10.0575 4.2875C9.8658 4.09583 9.6283 4 9.34497 4C9.06164 4 8.82414 4.09583 8.63247 4.2875C8.4408 4.47917 8.34497 4.71667 8.34497 5C8.34497 5.28333 8.4408 5.52083 8.63247 5.7125C8.82414 5.90417 9.06164 6 9.34497 6ZM12.345 14H18.345V12H12.345V14ZM12.345 10H18.345V8H12.345V10ZM12.345 6H18.345V4H12.345V6ZM6.34497 18C5.79497 18 5.32414 17.8042 4.93247 17.4125C4.5408 17.0208 4.34497 16.55 4.34497 16V2C4.34497 1.45 4.5408 0.979167 4.93247 0.5875C5.32414 0.195833 5.79497 0 6.34497 0H20.345C20.895 0 21.3658 0.195833 21.7575 0.5875C22.1491 0.979167 22.345 1.45 22.345 2V16C22.345 16.55 22.1491 17.0208 21.7575 17.4125C21.3658 17.8042 20.895 18 20.345 18H6.34497Z" fill="#94A3B8"/>
<path d="M6.32812 28.2979C6.32812 28.5941 6.27848 28.8797 6.1792 29.1548C6.07992 29.4299 5.92773 29.6732 5.72266 29.8848C5.51758 30.0964 5.25716 30.2648 4.94141 30.3901C4.62565 30.5155 4.2513 30.5781 3.81836 30.5781H2.10938V33H0.668945V26.1201H3.75977C4.19922 26.1201 4.58008 26.173 4.90234 26.2788C5.22461 26.3846 5.49154 26.5335 5.70312 26.7256C5.91471 26.9176 6.07178 27.1471 6.17432 27.4141C6.27686 27.681 6.32812 27.9756 6.32812 28.2979ZM4.87793 28.3223C4.87793 27.9674 4.77132 27.6981 4.55811 27.5142C4.34489 27.3302 4.02507 27.2383 3.59863 27.2383H2.10938V29.4697H3.6377C3.85254 29.4697 4.03727 29.4421 4.19189 29.3867C4.34652 29.3314 4.4751 29.2533 4.57764 29.1523C4.68018 29.0514 4.75586 28.9302 4.80469 28.7886C4.85352 28.647 4.87793 28.4915 4.87793 28.3223ZM7.36816 33V25.7539H8.74023V33H7.36816ZM11.3672 33.0977C11.1133 33.0977 10.8862 33.0627 10.686 32.9927C10.4858 32.9227 10.3158 32.8201 10.1758 32.6851C10.0358 32.55 9.92839 32.3831 9.85352 32.1846C9.77865 31.986 9.74121 31.7598 9.74121 31.5059C9.74121 31.1934 9.79574 30.9305 9.90479 30.7173C10.0138 30.5041 10.1628 30.3315 10.3516 30.1997C10.5404 30.0679 10.7617 29.9718 11.0156 29.9116C11.2695 29.8514 11.5397 29.8197 11.8262 29.8164L12.9639 29.7969V29.5283C12.9639 29.3363 12.9468 29.1759 12.9126 29.0474C12.8784 28.9188 12.8288 28.8138 12.7637 28.7324C12.6986 28.651 12.618 28.5933 12.522 28.5591C12.4259 28.5249 12.3161 28.5078 12.1924 28.5078C12.0785 28.5078 11.9767 28.5192 11.8872 28.542C11.7977 28.5648 11.7204 28.6047 11.6553 28.6616C11.5902 28.7186 11.5373 28.7951 11.4966 28.8911C11.4559 28.9871 11.4274 29.1084 11.4111 29.2549L9.98047 29.1865C10.0195 28.9554 10.0911 28.7446 10.1953 28.5542C10.2995 28.3638 10.4435 28.1986 10.6274 28.0586C10.8114 27.9186 11.0376 27.8104 11.3062 27.7339C11.5747 27.6574 11.8896 27.6191 12.251 27.6191C12.5798 27.6191 12.8727 27.6598 13.1299 27.7412C13.387 27.8226 13.6051 27.9438 13.7842 28.105C13.9632 28.2661 14.0999 28.4639 14.1943 28.6982C14.2887 28.9326 14.3359 29.2044 14.3359 29.5137V31.4375C14.3359 31.5612 14.3416 31.6719 14.353 31.7695C14.3644 31.8672 14.3856 31.9494 14.4165 32.0161C14.4474 32.0828 14.4914 32.1333 14.5483 32.1675C14.6053 32.2017 14.6794 32.2188 14.7705 32.2188C14.8747 32.2188 14.9756 32.209 15.0732 32.1895V32.9316C14.9919 32.9512 14.9186 32.9691 14.8535 32.9854C14.7884 33.0016 14.7233 33.0146 14.6582 33.0244C14.5931 33.0342 14.5239 33.0423 14.4507 33.0488C14.3774 33.0553 14.292 33.0586 14.1943 33.0586C13.8493 33.0586 13.5946 32.974 13.4302 32.8047C13.2658 32.6354 13.1673 32.3864 13.1348 32.0576H13.1055C12.9232 32.3864 12.6896 32.6419 12.4048 32.8242C12.12 33.0065 11.7741 33.0977 11.3672 33.0977ZM12.9639 30.5537L12.2607 30.5635C12.1143 30.57 11.9751 30.5822 11.8433 30.6001C11.7114 30.618 11.5959 30.6554 11.4966 30.7124C11.3973 30.7694 11.3184 30.8516 11.2598 30.959C11.2012 31.0664 11.1719 31.2129 11.1719 31.3984C11.1719 31.6491 11.2297 31.8354 11.3452 31.9575C11.4608 32.0796 11.6146 32.1406 11.8066 32.1406C11.9824 32.1406 12.1419 32.1032 12.2852 32.0283C12.4284 31.9535 12.5496 31.855 12.6489 31.7329C12.7482 31.6108 12.8255 31.4701 12.8809 31.3105C12.9362 31.151 12.9639 30.9883 12.9639 30.8223V30.5537ZM19.1309 33V30.0361C19.1309 29.8311 19.1146 29.6431 19.082 29.4722C19.0495 29.3013 18.9958 29.1548 18.9209 29.0327C18.846 28.9106 18.7484 28.8154 18.6279 28.7471C18.5075 28.6787 18.361 28.6445 18.1885 28.6445C18.0225 28.6445 17.8719 28.6812 17.7368 28.7544C17.6017 28.8276 17.4854 28.9318 17.3877 29.0669C17.29 29.202 17.2144 29.3631 17.1606 29.5503C17.1069 29.7375 17.0801 29.9434 17.0801 30.168V33H15.708V28.8984C15.708 28.7845 15.7072 28.6673 15.7056 28.5469C15.7039 28.4264 15.7007 28.3117 15.6958 28.2026C15.6909 28.0936 15.6868 27.9959 15.6836 27.9097C15.6803 27.8234 15.6755 27.7591 15.6689 27.7168H16.9775C16.984 27.7559 16.9906 27.8185 16.9971 27.9048C17.0036 27.991 17.0101 28.0863 17.0166 28.1904C17.0231 28.2946 17.0288 28.3988 17.0337 28.5029C17.0386 28.6071 17.041 28.695 17.041 28.7666H17.0605C17.2461 28.363 17.4788 28.07 17.7588 27.8877C18.0387 27.7054 18.3724 27.6143 18.7598 27.6143C19.0788 27.6143 19.3481 27.6663 19.5679 27.7705C19.7876 27.8747 19.9666 28.0179 20.105 28.2002C20.2433 28.3825 20.3434 28.5973 20.4053 28.8447C20.4671 29.0921 20.498 29.359 20.498 29.6455V33H19.1309ZM26.2695 31.457C26.2695 31.7109 26.2166 31.9388 26.1108 32.1406C26.005 32.3424 25.8512 32.5142 25.6494 32.6558C25.4476 32.7974 25.2002 32.9064 24.9072 32.9829C24.6143 33.0594 24.2806 33.0977 23.9062 33.0977C23.571 33.0977 23.2682 33.0732 22.998 33.0244C22.7279 32.9756 22.491 32.895 22.2876 32.7827C22.0841 32.6704 21.9141 32.5247 21.7773 32.3457C21.6406 32.1667 21.5381 31.9453 21.4697 31.6816L22.6758 31.501C22.7148 31.6475 22.7686 31.7663 22.8369 31.8574C22.9053 31.9486 22.9899 32.0186 23.0908 32.0674C23.1917 32.1162 23.3097 32.1488 23.4448 32.165C23.5799 32.1813 23.7337 32.1895 23.9062 32.1895C24.0625 32.1895 24.2082 32.1805 24.3433 32.1626C24.4784 32.1447 24.5955 32.1138 24.6948 32.0698C24.7941 32.0259 24.8714 31.964 24.9268 31.8843C24.9821 31.8045 25.0098 31.7044 25.0098 31.584C25.0098 31.4473 24.9699 31.339 24.8901 31.2593C24.8104 31.1795 24.7013 31.1144 24.563 31.064C24.4246 31.0135 24.2619 30.9696 24.0747 30.9321C23.8875 30.8947 23.6882 30.8516 23.4766 30.8027C23.2552 30.7539 23.0371 30.6953 22.8223 30.627C22.6074 30.5586 22.4154 30.4658 22.2461 30.3486C22.0768 30.2314 21.9401 30.0825 21.8359 29.9019C21.7318 29.7212 21.6797 29.4925 21.6797 29.2158C21.6797 28.9652 21.7285 28.7414 21.8262 28.5444C21.9238 28.3475 22.0671 28.1799 22.2559 28.0415C22.4447 27.9032 22.6782 27.7974 22.9565 27.7241C23.2349 27.6509 23.5547 27.6143 23.916 27.6143C24.2025 27.6143 24.4694 27.6411 24.7168 27.6948C24.9642 27.7485 25.1855 27.8332 25.3809 27.9487C25.5762 28.0643 25.7397 28.2116 25.8716 28.3906C26.0034 28.5697 26.0954 28.7861 26.1475 29.04L24.9316 29.167C24.9089 29.04 24.8682 28.9351 24.8096 28.8521C24.751 28.769 24.6785 28.7031 24.5923 28.6543C24.506 28.6055 24.4059 28.5721 24.292 28.5542C24.1781 28.5363 24.0527 28.5273 23.916 28.5273C23.5905 28.5273 23.3464 28.5688 23.1836 28.6519C23.0208 28.7349 22.9395 28.874 22.9395 29.0693C22.9395 29.1898 22.9728 29.2858 23.0396 29.3574C23.1063 29.429 23.2007 29.4884 23.3228 29.5356C23.4448 29.5828 23.5897 29.6235 23.7573 29.6577C23.925 29.6919 24.1081 29.7334 24.3066 29.7822C24.5508 29.8343 24.7909 29.8953 25.0269 29.9653C25.2629 30.0353 25.4728 30.1313 25.6567 30.2534C25.8407 30.3755 25.9888 30.5326 26.1011 30.7246C26.2134 30.9167 26.2695 31.1608 26.2695 31.457Z" fill="#94A3B8"/>
</svg>
