<svg width="33" height="57" viewBox="0 0 33 43" fill="none" xmlns="http://www.w3.org/2000/svg">
<path d="M8.84006 17.6167C9.83172 16.8583 10.9401 16.2604 12.1651 15.8229C13.3901 15.3854 14.6734 15.1667 16.0151 15.1667C17.3567 15.1667 18.6401 15.3854 19.8651 15.8229C21.0901 16.2604 22.1984 16.8583 23.1901 17.6167C23.8706 16.8194 24.4005 15.9153 24.7796 14.9042C25.1588 13.8931 25.3484 12.8139 25.3484 11.6667C25.3484 9.08056 24.4394 6.87847 22.6213 5.06042C20.8032 3.24236 18.6012 2.33333 16.0151 2.33333C13.4289 2.33333 11.2269 3.24236 9.40881 5.06042C7.59075 6.87847 6.68172 9.08056 6.68172 11.6667C6.68172 12.8139 6.87131 13.8931 7.25047 14.9042C7.62964 15.9153 8.1595 16.8194 8.84006 17.6167V17.6167M16.0151 12.8333C14.8678 12.8333 13.9005 12.4396 13.113 11.6521C12.3255 10.8646 11.9317 9.89722 11.9317 8.75C11.9317 7.60278 12.3255 6.63542 13.113 5.84792C13.9005 5.06042 14.8678 4.66667 16.0151 4.66667C17.1623 4.66667 18.1296 5.06042 18.9171 5.84792C19.7046 6.63542 20.0984 7.60278 20.0984 8.75C20.0984 9.89722 19.7046 10.8646 18.9171 11.6521C18.1296 12.4396 17.1623 12.8333 16.0151 12.8333V12.8333M16.0151 23.3333C14.4012 23.3333 12.8845 23.0271 11.4651 22.4146C10.0456 21.8021 8.81089 20.9708 7.76089 19.9208C6.71089 18.8708 5.87964 17.6361 5.26714 16.2167C4.65464 14.7972 4.34839 13.2806 4.34839 11.6667C4.34839 10.0528 4.65464 8.53611 5.26714 7.11667C5.87964 5.69722 6.71089 4.4625 7.76089 3.4125C8.81089 2.3625 10.0456 1.53125 11.4651 0.91875C12.8845 0.30625 14.4012 0 16.0151 0C17.6289 0 19.1456 0.30625 20.5651 0.91875C21.9845 1.53125 23.2192 2.3625 24.2692 3.4125C25.3192 4.4625 26.1505 5.69722 26.763 7.11667C27.3755 8.53611 27.6817 10.0528 27.6817 11.6667C27.6817 13.2806 27.3755 14.7972 26.763 16.2167C26.1505 17.6361 25.3192 18.8708 24.2692 19.9208C23.2192 20.9708 21.9845 21.8021 20.5651 22.4146C19.1456 23.0271 17.6289 23.3333 16.0151 23.3333V23.3333M16.0151 21C17.0456 21 18.0178 20.8493 18.9317 20.5479C19.8456 20.2465 20.6817 19.8139 21.4401 19.25C20.6817 18.6861 19.8456 18.2535 18.9317 17.9521C18.0178 17.6507 17.0456 17.5 16.0151 17.5C14.9845 17.5 14.0123 17.6507 13.0984 17.9521C12.1845 18.2535 11.3484 18.6861 10.5901 19.25C11.3484 19.8139 12.1845 20.2465 13.0984 20.5479C14.0123 20.8493 14.9845 21 16.0151 21V21M16.0151 10.5C16.5206 10.5 16.9387 10.3347 17.2692 10.0042C17.5998 9.67361 17.7651 9.25556 17.7651 8.75C17.7651 8.24444 17.5998 7.82639 17.2692 7.49583C16.9387 7.16528 16.5206 7 16.0151 7C15.5095 7 15.0914 7.16528 14.7609 7.49583C14.4303 7.82639 14.2651 8.24444 14.2651 8.75C14.2651 9.25556 14.4303 9.67361 14.7609 10.0042C15.0914 10.3347 15.5095 10.5 16.0151 10.5V10.5M16.0151 8.75V8.75V8.75V8.75V8.75V8.75V8.75V8.75V8.75V8.75M16.0151 19.25V19.25V19.25V19.25V19.25V19.25V19.25V19.25V19.25V19.25" fill="#9CA3AF"/>
<path d="M0.7 38.3333V31.1333H3.67499C3.74499 31.1333 3.83541 31.1358 3.94624 31.1408C4.05707 31.1458 4.15888 31.1566 4.25166 31.1733C4.66777 31.2377 5.01165 31.3767 5.28332 31.5903C5.55499 31.8039 5.75651 32.0727 5.8879 32.3966C6.01929 32.7205 6.08499 33.0805 6.08499 33.4766C6.08499 33.8727 6.0186 34.2327 5.88582 34.5566C5.75304 34.8805 5.55082 35.1492 5.27915 35.3628C5.00749 35.5764 4.66499 35.7155 4.25166 35.7799C4.15888 35.7932 4.05638 35.8032 3.94416 35.8099C3.83194 35.8166 3.74221 35.8199 3.67499 35.8199H1.90331V38.3333H0.7ZM1.90331 34.6916H3.62499C3.69277 34.6916 3.76791 34.6883 3.85041 34.6816C3.93291 34.6749 4.00999 34.6621 4.08166 34.6433C4.28055 34.5927 4.43736 34.5042 4.55208 34.3778C4.66681 34.2515 4.7482 34.108 4.79625 33.9474C4.84431 33.7869 4.86834 33.6299 4.86834 33.4766C4.86834 33.3232 4.84431 33.1663 4.79625 33.0057C4.7482 32.8452 4.66681 32.7017 4.55208 32.5753C4.43736 32.4489 4.28055 32.3605 4.08166 32.3099C4.00999 32.2905 3.93291 32.2775 3.85041 32.2712C3.76791 32.2648 3.69277 32.2616 3.62499 32.2616H1.90331V34.6916ZM7.085 38.3333V32.9333H8.14998V34.2483L8.01998 34.0783C8.08776 33.8983 8.17748 33.7338 8.28915 33.5849C8.40082 33.436 8.53443 33.3133 8.68998 33.2166C8.82276 33.126 8.96984 33.0558 9.13123 33.0058C9.29262 32.9558 9.45832 32.9249 9.62832 32.9133C9.79832 32.9016 9.96443 32.9083 10.1267 32.9333V34.0582C9.96443 34.011 9.77984 33.9963 9.5729 34.0141C9.36595 34.0318 9.17776 34.0893 9.00831 34.1866C8.84331 34.2771 8.70845 34.3923 8.60373 34.532C8.49901 34.6717 8.42165 34.8307 8.37165 35.0091C8.32165 35.1874 8.29665 35.381 8.29665 35.5899V38.3333H7.085ZM13.3617 38.4833C12.82 38.4833 12.3478 38.3616 11.945 38.1183C11.5422 37.8749 11.2299 37.5389 11.0079 37.1103C10.786 36.6817 10.675 36.1888 10.675 35.6316C10.675 35.0677 10.7883 34.5717 11.015 34.1437C11.2417 33.7156 11.5565 33.3819 11.9596 33.1424C12.3626 32.903 12.83 32.7833 13.3617 32.7833C13.9039 32.7833 14.3771 32.9048 14.7812 33.1478C15.1854 33.3909 15.499 33.7264 15.7221 34.1545C15.9451 34.5826 16.0567 35.0749 16.0567 35.6316C16.0567 36.1933 15.9443 36.6883 15.7196 37.1166C15.4949 37.5449 15.1803 37.8798 14.7758 38.1212C14.3714 38.3626 13.9 38.4833 13.3617 38.4833ZM13.3617 37.3549C13.8389 37.3549 14.1949 37.1944 14.4296 36.8733C14.6643 36.5522 14.7817 36.1383 14.7817 35.6316C14.7817 35.1088 14.6628 34.6914 14.425 34.3795C14.1872 34.0675 13.8328 33.9116 13.3617 33.9116C13.0383 33.9116 12.7726 33.9843 12.5646 34.1299C12.3565 34.2755 12.2021 34.4771 12.1012 34.7349C12.0004 34.9927 11.95 35.2916 11.95 35.6316C11.95 36.1566 12.0694 36.5751 12.3083 36.887C12.5472 37.199 12.8983 37.3549 13.3617 37.3549ZM17.6267 38.3333V32.8482C17.6267 32.711 17.631 32.5603 17.6396 32.3962C17.6482 32.232 17.6765 32.068 17.7246 31.9041C17.7726 31.7402 17.8578 31.591 17.98 31.4566C18.1322 31.2871 18.2978 31.1698 18.4767 31.1045C18.6555 31.0392 18.8314 31.0027 19.0042 30.9949C19.1769 30.9871 19.3294 30.9833 19.4617 30.9833H20.1367V31.9632H19.5117C19.2817 31.9632 19.1105 32.0209 18.9983 32.1362C18.8861 32.2514 18.83 32.4021 18.83 32.5882V38.3333H17.6267ZM16.755 33.8782V32.9333H20.1367V33.8782H16.755ZM21.1867 32.1149V31.0083H22.39V32.1149H21.1867ZM21.1867 38.3333V32.9333H22.39V38.3333H21.1867ZM23.99 38.3333V30.9833H25.1933V38.3333H23.99ZM29.1483 38.4833C28.6022 38.4833 28.1228 38.3648 27.71 38.1278C27.2972 37.8909 26.9749 37.5626 26.7429 37.1428C26.511 36.7231 26.395 36.2394 26.395 35.6916C26.395 35.1016 26.5088 34.5891 26.7362 34.1541C26.9637 33.7191 27.279 33.3819 27.6821 33.1424C28.0851 32.903 28.5517 32.7833 29.0817 32.7833C29.64 32.7833 30.115 32.9138 30.5067 33.1749C30.8983 33.436 31.1896 33.8049 31.3804 34.2816C31.5712 34.7582 31.643 35.321 31.5958 35.9699H30.4V35.5299C30.3967 34.9421 30.2933 34.513 30.09 34.2424C29.8867 33.9718 29.5672 33.8366 29.1317 33.8366C28.6389 33.8366 28.2721 33.9893 28.0312 34.2949C27.7904 34.6005 27.67 35.0466 27.67 35.6333C27.67 36.181 27.7904 36.6049 28.0312 36.9049C28.2721 37.2049 28.6222 37.3549 29.0817 37.3549C29.3783 37.3549 29.6339 37.2888 29.8483 37.1566C30.0628 37.0244 30.2283 36.8338 30.345 36.5849L31.5367 36.9433C31.3305 37.431 31.0112 37.8096 30.5787 38.0791C30.1462 38.3485 29.6694 38.4833 29.1483 38.4833ZM27.29 35.9699V35.0583H31.0067V35.9699H27.29Z" fill="#9CA3AF"/>
</svg>
