<svg width="42" height="59" viewBox="0 0 42 59" fill="none" xmlns="http://www.w3.org/2000/svg">
<path d="M20.13 16.1667H29.4633C28.9383 14.825 28.1362 13.6729 27.0571 12.7104C25.9779 11.7479 24.7383 11.0722 23.3383 10.6833L20.13 16.1667ZM17.4467 18.5L22.1133 10.45C21.8994 10.4111 21.6856 10.3819 21.4717 10.3625C21.2578 10.3431 21.0439 10.3333 20.83 10.3333C19.5467 10.3333 18.3508 10.5764 17.2425 11.0625C16.1342 11.5486 15.1522 12.2 14.2967 13.0167L17.4467 18.5ZM11.7883 22H18.1467L13.48 13.95C12.8578 14.7472 12.3717 15.6271 12.0217 16.5896C11.6717 17.5521 11.4967 18.5778 11.4967 19.6667C11.4967 20.075 11.521 20.4688 11.5696 20.8479C11.6182 21.2271 11.6911 21.6111 11.7883 22ZM18.3217 28.65L21.4717 23.1667H12.1967C12.7217 24.5083 13.5237 25.6604 14.6029 26.6229C15.6821 27.5854 16.9217 28.2611 18.3217 28.65ZM20.83 29C22.1133 29 23.3092 28.7569 24.4175 28.2708C25.5258 27.7847 26.5078 27.1333 27.3633 26.3167L24.2133 20.8333L19.5467 28.8833C19.7606 28.9222 19.9696 28.9514 20.1737 28.9708C20.3779 28.9903 20.5967 29 20.83 29ZM28.18 25.3833C28.8022 24.5861 29.2883 23.7062 29.6383 22.7437C29.9883 21.7812 30.1633 20.7556 30.1633 19.6667C30.1633 19.2583 30.139 18.8646 30.0904 18.4854C30.0418 18.1062 29.9689 17.7222 29.8717 17.3333H23.5133L28.18 25.3833ZM20.83 31.3333C19.2356 31.3333 17.7286 31.0271 16.3092 30.4146C14.8897 29.8021 13.6501 28.966 12.5904 27.9062C11.5307 26.8465 10.6946 25.6069 10.0821 24.1875C9.46958 22.7681 9.16333 21.2611 9.16333 19.6667C9.16333 18.0528 9.46958 16.541 10.0821 15.1312C10.6946 13.7215 11.5307 12.4868 12.5904 11.4271C13.6501 10.3674 14.8897 9.53125 16.3092 8.91875C17.7286 8.30625 19.2356 8 20.83 8C22.4439 8 23.9557 8.30625 25.3654 8.91875C26.7751 9.53125 28.0099 10.3674 29.0696 11.4271C30.1293 12.4868 30.9654 13.7215 31.5779 15.1312C32.1904 16.541 32.4967 18.0528 32.4967 19.6667C32.4967 21.2611 32.1904 22.7681 31.5779 24.1875C30.9654 25.6069 30.1293 26.8465 29.0696 27.9062C28.0099 28.966 26.7751 29.8021 25.3654 30.4146C23.9557 31.0271 22.4439 31.3333 20.83 31.3333Z" fill="#94A3B8"/>
<path d="M11.365 46.4834C10.8394 46.4834 10.3658 46.3917 9.94416 46.2084C9.5225 46.025 9.17583 45.7627 8.90416 45.4213C8.6325 45.0799 8.45889 44.6734 8.38333 44.2017L9.63664 44.0134C9.74164 44.4401 9.95998 44.7703 10.2916 45.0042C10.6233 45.2381 11.0061 45.3551 11.44 45.3551C11.6961 45.3551 11.9378 45.3148 12.165 45.2342C12.3922 45.1537 12.5765 45.0363 12.7179 44.8821C12.8593 44.728 12.93 44.5406 12.93 44.32C12.93 44.2184 12.9135 44.1255 12.8804 44.0413C12.8474 43.9571 12.7985 43.8816 12.7337 43.8146C12.669 43.7477 12.586 43.687 12.4846 43.6325C12.3832 43.5781 12.2644 43.53 12.1283 43.4884L10.27 42.94C10.11 42.8939 9.93721 42.8311 9.75166 42.7517C9.5661 42.6722 9.3911 42.5639 9.22666 42.4267C9.06222 42.2895 8.92722 42.1132 8.82166 41.8979C8.71611 41.6827 8.66333 41.4161 8.66333 41.0984C8.66333 40.6345 8.78125 40.2455 9.01708 39.9313C9.25291 39.6171 9.56972 39.3813 9.96749 39.2238C10.3653 39.0663 10.8083 38.9889 11.2967 38.9917C11.7889 38.9973 12.2286 39.0825 12.6158 39.2475C13.003 39.4125 13.3262 39.6512 13.5854 39.9634C13.8446 40.2756 14.0278 40.6545 14.135 41.1L12.84 41.3217C12.7878 41.0689 12.6853 40.8538 12.5325 40.6763C12.3797 40.4988 12.1943 40.3631 11.9763 40.2692C11.7582 40.1753 11.5261 40.1256 11.28 40.12C11.0394 40.1145 10.8169 40.1496 10.6125 40.2254C10.408 40.3013 10.2432 40.4089 10.1179 40.5484C9.99262 40.6878 9.92998 40.8511 9.92998 41.0384C9.92998 41.2167 9.98317 41.3612 10.0896 41.4717C10.196 41.5823 10.3289 41.6705 10.4883 41.7363C10.6478 41.8021 10.8083 41.8567 10.97 41.9L12.26 42.2584C12.4367 42.3062 12.6347 42.37 12.8542 42.45C13.0736 42.53 13.285 42.6416 13.4883 42.7846C13.6917 42.9277 13.8594 43.116 13.9917 43.3496C14.1239 43.5832 14.19 43.8789 14.19 44.2367C14.19 44.6106 14.1129 44.9385 13.9587 45.2205C13.8046 45.5024 13.5953 45.7366 13.3308 45.923C13.0664 46.1093 12.7649 46.2493 12.4262 46.343C12.0876 46.4366 11.7339 46.4834 11.365 46.4834ZM17.8217 46.4834C17.1022 46.4834 16.4853 46.3262 15.9708 46.0117C15.4564 45.6973 15.0618 45.2584 14.7871 44.695C14.5124 44.1317 14.375 43.4778 14.375 42.7334C14.375 41.9889 14.5124 41.335 14.7871 40.7717C15.0618 40.2084 15.4564 39.7695 15.9708 39.455C16.4853 39.1406 17.1022 38.9834 17.8217 38.9834C18.6506 38.9834 19.3418 39.1907 19.8954 39.6055C20.449 40.0202 20.8367 40.58 21.0583 41.285L19.8433 41.6184C19.7056 41.1484 19.4682 40.7811 19.1313 40.5167C18.7943 40.2522 18.3578 40.12 17.8217 40.12C17.3383 40.12 16.9355 40.2284 16.6133 40.445C16.2911 40.6617 16.0489 40.966 15.8866 41.3579C15.7244 41.7499 15.6428 42.2084 15.6416 42.7334C15.6405 43.2584 15.7211 43.7167 15.8833 44.1084C16.0455 44.5001 16.2883 44.8044 16.6117 45.0213C16.935 45.2383 17.3383 45.3467 17.8217 45.3467C18.3578 45.3467 18.7943 45.2137 19.1313 44.9476C19.4682 44.6814 19.7056 44.315 19.8433 43.8484L21.0583 44.1817C20.8367 44.8867 20.449 45.4466 19.8954 45.8613C19.3418 46.276 18.6506 46.4834 17.8217 46.4834ZM20.96 46.3334L23.23 39.1334H24.9966L27.2667 46.3334H26.025L23.9667 39.8734H24.2333L22.2016 46.3334H20.96ZM22.2267 44.7717V43.6467H26.0067V44.7717H22.2267ZM27.665 46.3334V39.1334H28.885L32.2233 44.2084V39.1334H33.4433V46.3334H32.2233L28.885 41.2567V46.3334H27.665Z" fill="#94A3B8"/>
</svg>
