<svg width="54" height="54" viewBox="0 0 54 39" fill="none" xmlns="http://www.w3.org/2000/svg">
<path d="M23.7751 20L23.3751 16.8C23.1584 16.7167 22.9543 16.6167 22.7626 16.5C22.5709 16.3833 22.3834 16.2583 22.2001 16.125L19.2251 17.375L16.4751 12.625L19.0501 10.675C19.0334 10.5583 19.0251 10.4458 19.0251 10.3375C19.0251 10.2292 19.0251 10.1167 19.0251 10C19.0251 9.88333 19.0251 9.77083 19.0251 9.6625C19.0251 9.55417 19.0334 9.44167 19.0501 9.325L16.4751 7.375L19.2251 2.625L22.2001 3.875C22.3834 3.74167 22.5751 3.61667 22.7751 3.5C22.9751 3.38333 23.1751 3.28333 23.3751 3.2L23.7751 0H29.2751L29.6751 3.2C29.8918 3.28333 30.0959 3.38333 30.2876 3.5C30.4793 3.61667 30.6668 3.74167 30.8501 3.875L33.8251 2.625L36.5751 7.375L34.0001 9.325C34.0168 9.44167 34.0251 9.55417 34.0251 9.6625C34.0251 9.77083 34.0251 9.88333 34.0251 10C34.0251 10.1167 34.0251 10.2292 34.0251 10.3375C34.0251 10.4458 34.0084 10.5583 33.9751 10.675L36.5501 12.625L33.8001 17.375L30.8501 16.125C30.6668 16.2583 30.4751 16.3833 30.2751 16.5C30.0751 16.6167 29.8751 16.7167 29.6751 16.8L29.2751 20H23.7751V20M25.5251 18H27.5001L27.8501 15.35C28.3668 15.2167 28.8459 15.0208 29.2876 14.7625C29.7293 14.5042 30.1334 14.1917 30.5001 13.825L32.9751 14.85L33.9501 13.15L31.8001 11.525C31.8834 11.2917 31.9418 11.0458 31.9751 10.7875C32.0084 10.5292 32.0251 10.2667 32.0251 10C32.0251 9.73333 32.0084 9.47083 31.9751 9.2125C31.9418 8.95417 31.8834 8.70833 31.8001 8.475L33.9501 6.85L32.9751 5.15L30.5001 6.2C30.1334 5.81667 29.7293 5.49583 29.2876 5.2375C28.8459 4.97917 28.3668 4.78333 27.8501 4.65L27.5251 2H25.5501L25.2001 4.65C24.6834 4.78333 24.2043 4.97917 23.7626 5.2375C23.3209 5.49583 22.9168 5.80833 22.5501 6.175L20.0751 5.15L19.1001 6.85L21.2501 8.45C21.1668 8.7 21.1084 8.95 21.0751 9.2C21.0418 9.45 21.0251 9.71667 21.0251 10C21.0251 10.2667 21.0418 10.525 21.0751 10.775C21.1084 11.025 21.1668 11.275 21.2501 11.525L19.1001 13.15L20.0751 14.85L22.5501 13.8C22.9168 14.1833 23.3209 14.5042 23.7626 14.7625C24.2043 15.0208 24.6834 15.2167 25.2001 15.35L25.5251 18V18M26.5751 13.5C27.5418 13.5 28.3668 13.1583 29.0501 12.475C29.7334 11.7917 30.0751 10.9667 30.0751 10C30.0751 9.03333 29.7334 8.20833 29.0501 7.525C28.3668 6.84167 27.5418 6.5 26.5751 6.5C25.5918 6.5 24.7626 6.84167 24.0876 7.525C23.4126 8.20833 23.0751 9.03333 23.0751 10C23.0751 10.9667 23.4126 11.7917 24.0876 12.475C24.7626 13.1583 25.5918 13.5 26.5751 13.5V13.5M26.5251 10V10V10V10V10V10V10V10V10V10V10V10V10V10V10V10V10V10V10V10V10V10V10V10V10V10V10V10V10V10V10V10V10V10V10V10" fill="#9CA3AF"/>
<path d="M3.36499 35.15C2.83944 35.15 2.36583 35.0583 1.94416 34.875C1.5225 34.6917 1.17583 34.4293 0.904164 34.0879C0.632498 33.7465 0.458887 33.34 0.383331 32.8683L1.63664 32.68C1.74164 33.1067 1.95998 33.437 2.29165 33.6708C2.62332 33.9047 3.0061 34.0217 3.43999 34.0217C3.69611 34.0217 3.93778 33.9814 4.165 33.9008C4.39222 33.8203 4.57653 33.7029 4.71792 33.5488C4.85931 33.3946 4.93001 33.2072 4.93001 32.9867C4.93001 32.885 4.91348 32.7921 4.88042 32.7079C4.84736 32.6237 4.79847 32.5482 4.73375 32.4812C4.66903 32.4143 4.58597 32.3536 4.48458 32.2992C4.38319 32.2447 4.26444 32.1967 4.12833 32.155L2.27 31.6067C2.10999 31.5605 1.93721 31.4978 1.75166 31.4183C1.5661 31.3389 1.3911 31.2305 1.22666 31.0933C1.06222 30.9561 0.927217 30.7798 0.821663 30.5646C0.716109 30.3493 0.663331 30.0828 0.663331 29.765C0.663331 29.3011 0.781248 28.9121 1.01708 28.5979C1.25291 28.2838 1.56972 28.0479 1.96749 27.8904C2.36527 27.7329 2.80833 27.6556 3.29666 27.6583C3.78888 27.6639 4.2286 27.7492 4.61582 27.9142C5.00305 28.0792 5.32624 28.3178 5.58541 28.63C5.84457 28.9422 6.02776 29.3211 6.13499 29.7667L4.84001 29.9883C4.78779 29.7355 4.68528 29.5204 4.53251 29.3429C4.37973 29.1654 4.19431 29.0297 3.97625 28.9358C3.75819 28.8419 3.52611 28.7922 3.27999 28.7866C3.03943 28.7811 2.81693 28.8162 2.61248 28.8921C2.40804 28.9679 2.24317 29.0755 2.1179 29.215C1.99262 29.3544 1.92998 29.5178 1.92998 29.705C1.92998 29.8833 1.98317 30.0278 2.08956 30.1383C2.19595 30.2489 2.32887 30.3371 2.48832 30.4029C2.64776 30.4688 2.80832 30.5233 2.96999 30.5667L4.25999 30.925C4.43666 30.9728 4.63471 31.0367 4.85416 31.1167C5.0736 31.1967 5.28499 31.3082 5.48832 31.4513C5.69165 31.5943 5.85943 31.7826 5.99165 32.0163C6.12387 32.2499 6.18999 32.5456 6.18999 32.9033C6.18999 33.2772 6.1129 33.6051 5.95874 33.8871C5.80457 34.169 5.59527 34.4032 5.33082 34.5896C5.06638 34.776 4.76485 34.916 4.42624 35.0096C4.08763 35.1032 3.73388 35.15 3.36499 35.15ZM7.775 35V27.8H12.425V28.9283H8.97831V30.7067H11.825V31.835H8.97831V33.8717H12.425V35H7.775ZM15.8567 35V28.9283H13.525V27.8H19.3917V28.9283H17.06V35H15.8567ZM23.0217 35V28.9283H20.69V27.8H26.5567V28.9283H24.225V35H23.0217ZM27.955 35V27.8H29.1583V35H27.955ZM31.16 35V27.8H32.38L35.7183 32.875V27.8H36.9383V35H35.7183L32.38 29.9233V35H31.16ZM41.8117 35.15C41.3444 35.15 40.9064 35.0674 40.4975 34.9021C40.0886 34.7368 39.7304 34.4944 39.4229 34.175C39.1154 33.8556 38.8747 33.4632 38.7008 32.9979C38.5269 32.5326 38.44 32 38.44 31.4C38.44 30.6139 38.5871 29.9414 38.8812 29.3825C39.1754 28.8236 39.5769 28.3954 40.0858 28.0979C40.5947 27.8004 41.17 27.6517 41.8117 27.6517C42.6983 27.6517 43.4005 27.8576 43.9183 28.2696C44.4361 28.6815 44.7861 29.2578 44.9683 29.9983L43.7417 30.1933C43.6044 29.7683 43.3804 29.4286 43.0696 29.1741C42.7587 28.9197 42.3644 28.7911 41.8867 28.7883C41.4033 28.7828 41.0012 28.8882 40.6804 29.1046C40.3596 29.321 40.1187 29.6264 39.9579 30.0208C39.7971 30.4153 39.7161 30.875 39.715 31.4C39.7139 31.925 39.7937 32.382 39.9546 32.7708C40.1154 33.1597 40.3568 33.4627 40.6787 33.6796C41.0007 33.8965 41.4033 34.0078 41.8867 34.0134C42.2478 34.0189 42.5649 33.954 42.8379 33.8188C43.111 33.6835 43.3343 33.4781 43.5079 33.2025C43.6815 32.9269 43.7989 32.5828 43.86 32.17H42.59V31.225H45.14C45.1472 31.2767 45.1523 31.3544 45.1554 31.4583C45.1585 31.5622 45.16 31.625 45.16 31.6467C45.16 32.3261 45.0258 32.9299 44.7575 33.4579C44.4892 33.986 44.1051 34.4 43.6054 34.7C43.1057 35 42.5078 35.15 41.8117 35.15ZM49.325 35.15C48.7994 35.15 48.3258 35.0583 47.9042 34.875C47.4825 34.6917 47.1358 34.4293 46.8642 34.0879C46.5925 33.7465 46.4189 33.34 46.3433 32.8683L47.5966 32.68C47.7016 33.1067 47.92 33.437 48.2516 33.6708C48.5833 33.9047 48.9661 34.0217 49.4 34.0217C49.6561 34.0217 49.8978 33.9814 50.125 33.9008C50.3522 33.8203 50.5365 33.7029 50.6779 33.5488C50.8193 33.3946 50.89 33.2072 50.89 32.9867C50.89 32.885 50.8735 32.7921 50.8404 32.7079C50.8074 32.6237 50.7585 32.5482 50.6937 32.4812C50.629 32.4143 50.546 32.3536 50.4446 32.2992C50.3432 32.2447 50.2244 32.1967 50.0883 32.155L48.23 31.6067C48.07 31.5605 47.8972 31.4978 47.7117 31.4183C47.5261 31.3389 47.3511 31.2305 47.1867 31.0933C47.0222 30.9561 46.8872 30.7798 46.7817 30.5646C46.6761 30.3493 46.6233 30.0828 46.6233 29.765C46.6233 29.3011 46.7412 28.9121 46.9771 28.5979C47.2129 28.2838 47.5297 28.0479 47.9275 27.8904C48.3253 27.7329 48.7683 27.6556 49.2567 27.6583C49.7489 27.6639 50.1886 27.7492 50.5758 27.9142C50.963 28.0792 51.2862 28.3178 51.5454 28.63C51.8046 28.9422 51.9878 29.3211 52.095 29.7667L50.8 29.9883C50.7478 29.7355 50.6453 29.5204 50.4925 29.3429C50.3397 29.1654 50.1543 29.0297 49.9362 28.9358C49.7182 28.8419 49.4861 28.7922 49.24 28.7866C48.9994 28.7811 48.7769 28.8162 48.5725 28.8921C48.368 28.9679 48.2032 29.0755 48.0779 29.215C47.9526 29.3544 47.89 29.5178 47.89 29.705C47.89 29.8833 47.9432 30.0278 48.0496 30.1383C48.156 30.2489 48.2889 30.3371 48.4483 30.4029C48.6078 30.4688 48.7683 30.5233 48.93 30.5667L50.22 30.925C50.3967 30.9728 50.5947 31.0367 50.8142 31.1167C51.0336 31.1967 51.245 31.3082 51.4483 31.4513C51.6517 31.5943 51.8194 31.7826 51.9517 32.0163C52.0839 32.2499 52.15 32.5456 52.15 32.9033C52.15 33.2772 52.0729 33.6051 51.9187 33.8871C51.7646 34.169 51.5553 34.4032 51.2908 34.5896C51.0264 34.776 50.7249 34.916 50.3862 35.0096C50.0476 35.1032 49.6939 35.15 49.325 35.15Z" fill="#9CA3AF"/>
</svg>
